<?xml version="1.0" standalone="no"?>
<!DOCTYPE svg PUBLIC "-//W3C//DTD SVG 20010904//EN"
 "http://www.w3.org/TR/2001/REC-SVG-20010904/DTD/svg10.dtd">
<svg version="1.0" xmlns="http://www.w3.org/2000/svg"
 width="300.000000pt" height="253.000000pt" viewBox="0 0 300.000000 253.000000"
 preserveAspectRatio="xMidYMid meet">
<metadata>
Created by potrace 1.10, written by Peter Selinger 2001-2011
</metadata>
<g transform="translate(0.000000,253.000000) scale(0.100000,-0.100000)"
fill="#ffffff" stroke="none">
<path d="M1457 2523 c-12 -12 -7 -22 8 -17 8 4 15 1 15 -6 0 -7 5 -6 15 4 8 8
15 17 15 20 0 8 -45 7 -53 -1z"/>
<path d="M417 2428 c-57 -12 -92 -33 -130 -80 -62 -77 -66 -185 -10 -252 l26
-31 -32 -6 c-18 -4 -41 -15 -51 -24 -46 -42 -4 -125 63 -125 39 0 104 -58 94
-84 -9 -22 6 -20 27 3 16 18 15 21 -38 67 -47 42 -60 48 -90 46 -30 -3 -38 0
-48 23 -14 31 -4 54 29 66 28 10 65 -16 61 -44 -2 -16 24 -46 105 -120 107
-98 140 -144 53 -72 l-45 37 -22 -21 c-19 -18 -20 -21 -6 -21 19 0 20 -11 8
-95 -9 -63 -60 -205 -73 -205 -4 0 -8 15 -8 34 0 19 -4 38 -10 41 -6 4 -10
-37 -10 -114 0 -113 1 -121 19 -121 16 0 21 10 26 58 3 31 21 102 40 157 22
63 35 124 37 163 4 85 18 91 18 8 0 -49 -9 -89 -35 -163 -20 -54 -38 -126 -42
-160 l-6 -63 40 0 41 0 7 57 c9 71 46 203 78 275 55 125 174 275 291 368 l56
45 0 67 0 68 -36 0 c-34 0 -46 -10 -153 -120 -64 -66 -113 -120 -108 -120 4 0
7 -4 7 -10 0 -5 -19 -15 -42 -21 -24 -7 -49 -17 -55 -22 -9 -6 -13 -6 -13 2 0
7 -10 10 -26 7 -31 -6 -43 18 -20 43 21 23 20 41 -2 41 -15 0 -18 -8 -17 -50
l1 -50 -32 31 c-37 36 -53 85 -34 102 10 9 11 9 6 0 -8 -14 13 -29 23 -17 3 5
5 8 3 7 -2 -1 -26 20 -54 46 -47 45 -51 52 -56 103 -6 72 10 116 56 160 98 94
240 69 303 -54 55 -107 -22 -261 -135 -270 -30 -3 -37 -24 -19 -58 l14 -25 -3
25 c-4 36 9 50 43 50 18 0 28 -4 24 -10 -21 -34 25 5 124 104 l113 113 -53 49
c-29 27 -59 56 -68 65 -9 9 -24 19 -33 22 -22 8 -24 43 -3 51 17 6 48 -21 39
-36 -7 -11 22 -44 89 -100 36 -31 58 -41 85 -42 l37 -1 3 -68 c2 -49 6 -67 15
-63 7 3 20 9 30 12 14 5 17 19 17 88 0 77 2 84 29 110 20 19 27 34 23 52 -5
28 13 54 38 54 20 0 50 -31 50 -52 0 -22 -37 -51 -56 -44 -10 4 -25 -3 -40
-16 -20 -20 -24 -32 -24 -92 0 -51 3 -67 13 -63 119 50 117 48 117 83 0 46 20
57 185 97 111 28 140 38 140 52 0 21 26 36 59 33 35 -3 54 -48 34 -77 -8 -12
-18 -18 -21 -14 -4 3 -7 -8 -7 -25 0 -32 0 -32 54 -32 l54 0 -5 38 c-3 25 0
43 8 53 8 8 14 21 14 29 0 8 10 16 22 18 18 3 23 -2 23 -20 0 -13 3 -47 6 -75
6 -49 8 -53 32 -53 24 0 91 -15 150 -34 21 -7 22 -5 22 52 0 51 -3 60 -20 65
-43 11 -35 72 10 72 32 0 49 -29 32 -55 -6 -11 -12 -30 -12 -42 0 -20 4 -18
40 17 22 21 39 44 39 50 -3 27 3 35 25 35 26 0 42 -26 27 -44 -16 -19 -1 -58
35 -95 47 -48 32 -53 -16 -6 -24 23 -40 48 -40 62 0 33 -21 28 -63 -15 -28
-29 -37 -46 -37 -72 0 -34 3 -36 60 -59 l61 -23 82 78 c45 43 82 84 83 90 2
10 -5 11 -35 5 -2 -1 2 -7 8 -15 9 -10 8 -15 -3 -19 -21 -8 -29 8 -17 32 19
36 65 37 76 1 9 -27 -5 -50 -34 -56 -14 -4 -36 -16 -48 -27 l-23 -20 28 -14
c31 -15 152 -133 137 -133 -6 0 -43 29 -83 65 -40 36 -79 65 -86 65 -13 0 -73
-57 -65 -63 2 -2 36 -24 76 -50 132 -84 269 -232 351 -378 41 -73 99 -248 108
-326 l7 -63 40 0 40 0 -5 68 c-4 45 -18 97 -42 159 -45 110 -46 159 -4 156 20
-1 29 5 38 28 36 85 170 57 170 -36 0 -82 -101 -117 -154 -54 -14 17 -26 35
-26 40 0 5 -11 9 -25 9 -34 0 -32 -16 16 -140 26 -66 43 -128 46 -167 5 -53 9
-63 24 -63 17 0 19 10 20 113 2 175 1 166 6 140 3 -16 11 -23 28 -23 14 0 29
-8 34 -18 14 -26 -14 -66 -40 -59 -17 5 -19 -1 -19 -74 0 -59 3 -79 13 -79 8
0 21 -8 30 -18 15 -16 17 -47 17 -230 0 -137 4 -220 11 -236 22 -48 -22 -106
-80 -106 -10 0 -30 10 -45 21 -23 18 -27 28 -24 62 2 34 9 46 33 61 l30 20 0
202 0 203 -75 3 c-41 2 -86 1 -100 -1 -22 -4 -23 -5 -5 -12 11 -4 -117 -8
-285 -8 l-306 -1 1 -62 c2 -115 1 -113 39 -115 26 -1 35 3 39 18 3 10 10 19
16 19 15 0 14 -47 -1 -53 -10 -4 -10 -6 0 -6 14 -1 18 -206 3 -215 -15 -10
-21 22 -21 115 0 53 -4 89 -10 89 -9 0 -15 -23 -11 -44 1 -5 -1 -16 -5 -25 -5
-11 -10 -2 -14 29 l-7 45 -1 -42 c-2 -31 3 -45 16 -52 15 -9 13 -10 -9 -11
-23 0 -27 -5 -32 -37 -4 -21 -2 -42 3 -47 7 -7 10 5 10 32 0 39 2 42 28 41
l27 -1 -25 -8 c-17 -5 -19 -8 -7 -9 9 -1 17 -8 17 -17 0 -14 -3 -14 -15 -4
-29 24 -18 -41 12 -72 19 -20 22 -28 11 -28 -8 0 -22 8 -31 18 -23 25 -77 18
-77 -9 0 -16 8 -19 54 -19 52 0 78 -11 56 -25 -5 -3 -10 -11 -10 -17 0 -7 6
-6 15 2 8 7 15 23 15 35 0 12 10 29 22 37 22 15 23 21 23 161 0 80 -2 145 -5
145 -3 0 -18 1 -35 2 -25 2 -23 4 15 11 25 4 131 7 235 6 105 0 168 -2 142 -4
-30 -3 -55 -11 -68 -24 -10 -10 -16 -20 -11 -20 4 -1 -6 -4 -23 -8 -38 -9 -55
-3 -48 15 3 8 0 14 -7 14 -6 0 -8 5 -5 10 13 22 -21 8 -42 -17 -18 -20 -23
-38 -23 -78 0 -28 5 -56 12 -63 24 -24 -6 -35 -69 -27 l-58 8 50 9 c27 5 51
11 53 12 2 2 0 16 -4 31 -5 20 -9 23 -15 13 -5 -8 -9 8 -9 43 0 52 -2 57 -24
61 -50 10 -56 -3 -55 -125 1 -62 3 -104 6 -94 2 9 13 17 24 17 22 0 25 -13 6
-32 -15 -15 -11 -158 4 -158 20 0 7 -18 -40 -53 -54 -42 -91 -49 -88 -17 1 12
8 20 20 20 10 0 16 -4 12 -9 -3 -5 -1 -12 5 -16 6 -4 10 6 10 23 0 16 7 35 15
42 8 7 12 17 9 22 -3 5 -17 -1 -30 -13 -13 -12 -27 -19 -31 -16 -3 4 -3 7 0 7
21 0 -38 40 -60 42 -16 0 -6 4 22 8 35 5 9 7 -89 8 -126 2 -137 1 -125 -14 8
-10 15 -12 17 -5 2 6 8 11 14 11 7 0 7 -5 -1 -13 -6 -8 -8 -17 -4 -20 3 -4 2
-7 -4 -7 -5 0 -20 11 -33 25 -18 19 -33 25 -64 24 l-41 -1 38 -8 c62 -12 70
-30 13 -30 -29 0 -45 4 -41 10 3 6 0 10 -9 10 -8 0 -16 -4 -18 -9 -1 -5 -16
-3 -33 5 -27 13 -27 14 -5 9 14 -2 32 0 40 5 10 7 -19 10 -87 10 -97 0 -102
-1 -106 -22 l-4 -23 -2 23 c-1 15 -7 22 -21 22 -18 0 -25 -10 -21 -32 0 -5 -3
-8 -9 -8 -9 0 -14 14 -11 33 1 4 -67 7 -151 5 l-153 -3 -2 40 c-1 22 1 32 4
22 4 -18 6 -17 29 4 18 17 24 33 24 66 0 27 -5 43 -12 43 -9 0 -9 3 0 12 7 7
12 33 12 59 0 37 -4 49 -17 52 -17 4 -17 5 0 6 13 1 17 10 17 41 0 23 -5 40
-11 40 -7 0 -10 -14 -7 -35 2 -19 0 -35 -4 -35 -4 0 -8 7 -8 15 0 8 -4 15 -8
15 -13 0 -7 -67 9 -86 12 -16 12 -17 -1 -12 -11 4 -16 0 -17 -12 -1 -10 5 -17
14 -16 9 0 17 -5 19 -12 1 -7 0 -9 -2 -4 -2 5 -18 6 -34 4 l-30 -4 0 71 c0 68
1 71 26 77 19 5 24 12 21 25 -4 14 0 19 14 19 16 0 19 7 19 45 0 33 -4 45 -15
45 -8 0 -18 0 -22 0 -3 0 -7 -27 -7 -60 -1 -33 -4 -60 -8 -60 -5 0 -8 5 -8 10
0 6 -18 10 -40 10 -23 0 -40 5 -40 11 0 7 15 10 40 7 33 -3 40 0 40 14 0 14
-8 18 -40 18 -23 0 -40 5 -40 11 0 7 15 10 40 7 33 -3 40 0 40 14 0 14 -8 18
-40 18 -23 0 -40 5 -40 11 0 7 15 10 40 7 33 -3 40 0 40 14 0 14 -8 18 -40 18
-22 0 -40 5 -40 11 0 7 14 8 40 4 38 -7 40 -6 40 20 0 24 -2 26 -15 15 -12
-10 -19 -10 -27 -2 -7 7 -25 12 -40 12 -20 0 -31 7 -38 23 -7 18 -9 18 -9 4
-1 -29 -21 -8 -21 22 0 47 -25 60 -135 67 -55 4 -97 4 -94 0 3 -3 30 -7 60 -7
54 -1 123 -24 114 -39 -2 -4 9 -20 25 -35 17 -16 30 -33 30 -39 0 -5 -15 4
-33 22 l-33 32 -127 0 -127 0 0 -30 c0 -27 -3 -30 -30 -30 -21 0 -30 5 -30 16
0 9 5 12 12 8 7 -4 8 -3 4 5 -6 9 -11 9 -21 1 -11 -9 -11 1 1 52 49 213 146
363 354 546 19 17 29 32 23 32 -21 0 -147 -115 -203 -185 -122 -154 -229 -413
-190 -460 10 -12 9 -15 -4 -15 -11 0 -16 -9 -16 -30 0 -28 2 -30 39 -30 22 0
41 -5 44 -12 7 -19 167 -12 167 8 0 11 -23 14 -120 14 -100 0 -120 3 -120 15
0 11 11 15 40 15 22 0 40 -3 40 -7 0 -5 36 -7 80 -5 55 3 80 7 80 16 0 9 28
12 111 10 61 -2 112 -4 113 -6 1 -2 0 -40 -2 -85 l-3 -82 -45 -7 c-24 -3 -73
-3 -109 1 -44 4 -65 3 -65 -4 0 -6 -13 -11 -29 -11 -17 0 -33 -4 -36 -10 -7
-12 -45 -14 -45 -2 0 10 -123 31 -193 34 -50 1 -50 2 -9 5 31 3 42 8 42 21 1
16 1 16 10 0 8 -12 19 -15 50 -11 26 4 40 2 40 -6 0 -15 53 -14 68 1 9 9 15 9
24 0 18 -18 78 -16 78 3 0 12 -18 15 -106 15 -67 0 -103 4 -99 10 4 6 -21 10
-68 10 -63 0 -75 -3 -79 -17 -3 -10 -2 -67 2 -128 6 -91 14 -131 48 -234 23
-67 42 -129 42 -135 0 -7 -11 -23 -25 -36 l-25 -24 32 -33 32 -33 23 22 c19
18 27 20 48 10 32 -15 35 -66 5 -82 -11 -6 -25 -8 -30 -5 -9 6 -59 -42 -60
-57 0 -4 16 -11 35 -17 75 -20 124 -81 127 -155 1 -20 5 -33 11 -29 6 3 7 32
3 68 -6 58 -4 65 20 94 14 17 33 31 41 31 13 0 79 -51 152 -117 16 -13 24 -66
15 -96 -5 -17 -7 -17 -23 -2 -11 9 -16 25 -14 38 3 14 -3 29 -16 41 -19 18
-22 18 -46 2 -29 -19 -32 -38 -10 -56 22 -18 15 -55 -10 -55 -18 0 -21 9 -27
73 -9 104 -18 101 -18 -6 0 -92 0 -92 25 -92 30 0 75 -41 75 -67 0 -25 -27
-63 -54 -73 -18 -8 -16 -9 12 -7 23 1 37 -4 43 -16 6 -9 21 -17 35 -17 20 0
29 8 41 38 17 45 50 71 59 47 9 -22 66 -19 94 5 19 17 37 20 112 20 49 0 98
-5 108 -10 14 -8 22 -6 32 8 15 21 87 29 117 12 18 -9 21 -20 21 -69 l0 -58
-42 -9 c-64 -14 -57 -30 12 -26 l60 4 -1 94 -1 94 -29 0 c-48 0 -178 29 -268
61 -87 30 -117 48 -94 56 16 6 17 43 2 43 -6 0 -9 -6 -6 -12 2 -7 -11 -32 -29
-55 -22 -27 -30 -44 -23 -49 6 -3 18 0 26 9 14 13 19 13 47 -3 17 -10 70 -31
119 -46 48 -15 87 -32 87 -36 0 -12 -8 -10 -115 27 -100 35 -145 42 -60 10 47
-18 75 -43 38 -33 -11 3 -42 2 -69 -2 -45 -7 -51 -6 -73 17 -19 20 -21 27 -10
34 10 6 11 11 3 19 -7 7 -22 -3 -49 -31 l-40 -42 48 7 c38 5 47 3 47 -10 0
-13 -9 -14 -51 -9 -44 6 -54 4 -75 -16 -16 -15 -22 -29 -18 -42 7 -22 -11 -38
-33 -30 -22 9 -15 32 21 67 l35 33 2 117 1 116 -28 22 c-16 12 -54 46 -85 75
l-56 54 -56 -58 c-30 -32 -59 -54 -64 -49 -4 4 18 32 50 62 l58 54 -50 68
c-109 145 -182 326 -197 492 -5 54 -4 71 4 66 7 -4 12 -19 12 -33 0 -21 2 -23
15 -13 8 6 19 8 26 4 8 -5 3 -12 -15 -21 -24 -13 -26 -18 -20 -51 4 -20 11
-48 15 -62 8 -24 8 -24 6 5 -2 26 2 31 28 36 l30 7 -31 1 c-42 1 -54 37 -18
53 13 6 24 14 24 18 0 14 -29 32 -40 25 -5 -3 -10 1 -10 9 0 9 8 16 19 16 11
0 26 3 35 6 12 5 16 0 16 -17 0 -13 9 -71 20 -128 22 -117 69 -227 137 -323
23 -34 40 -66 36 -72 -3 -6 -2 -8 2 -3 5 4 30 -14 57 -40 43 -42 48 -45 48
-25 0 15 -4 21 -12 17 -7 -4 -5 0 5 8 9 8 17 20 18 28 0 8 4 5 8 -6 5 -12 3
-30 -5 -47 -13 -25 -12 -28 14 -46 15 -11 34 -17 42 -15 12 4 12 3 2 -5 -22
-15 76 -72 124 -71 31 0 35 2 19 9 -16 7 -11 9 22 9 38 1 41 3 35 23 -5 20 -3
21 10 11 8 -7 18 -9 23 -5 4 4 6 -3 3 -14 -3 -12 -2 -28 3 -35 7 -12 9 -12 9
0 0 9 8 12 25 9 17 -4 34 3 57 23 17 16 42 29 55 29 20 0 23 5 23 36 0 19 4
33 9 30 5 -4 12 0 14 6 3 7 6 -9 6 -37 1 -36 -2 -46 -9 -35 -5 8 -10 11 -10 7
0 -16 33 -57 46 -57 8 0 14 -11 14 -26 0 -22 2 -25 15 -14 18 15 21 -1 4 -32
-8 -15 -8 -19 0 -14 7 5 11 -3 10 -21 0 -24 -1 -25 -8 -8 -8 19 -9 18 -13 -5
-5 -24 -5 -24 -7 3 l-1 28 -27 -20 c-24 -17 -34 -19 -68 -11 -43 10 -80 12
-57 3 7 -2 52 -13 100 -24 77 -17 81 -19 29 -14 -59 5 -223 54 -267 80 -38 22
-17 18 49 -9 64 -26 101 -25 140 5 13 10 28 16 34 12 5 -3 7 -1 3 5 -9 16 -66
12 -66 -5 0 -9 -13 -13 -41 -13 -37 0 -40 2 -33 22 6 20 5 21 -9 10 -22 -19
-113 -10 -162 15 -52 27 -144 95 -220 163 -53 47 -55 49 -20 11 139 -151 359
-269 570 -307 44 -8 82 -14 85 -14 3 0 5 68 5 151 0 83 3 153 8 156 4 2 7 -66
7 -151 0 -149 1 -156 20 -156 19 0 20 7 20 94 0 86 -10 126 -23 94 -3 -8 -6
-6 -6 5 -1 9 6 17 14 17 11 0 15 12 15 49 0 28 5 53 10 56 7 4 10 -50 10 -154
l0 -161 23 0 23 0 -2 155 c-2 92 1 155 7 155 5 0 9 -113 9 -284 l0 -284 80 -4
c68 -3 77 -1 65 11 -7 8 -26 15 -42 16 -80 5 -73 -1 -73 70 0 65 2 67 38 64 4
0 5 -8 4 -17 -3 -13 -1 -14 12 -3 8 7 20 10 26 6 16 -10 12 -33 -7 -44 -10 -6
-13 -11 -7 -11 6 0 17 7 25 16 10 13 10 19 0 36 -10 16 -10 22 -1 28 15 9 111
23 117 16 2 -2 -3 -19 -12 -36 -16 -31 -16 -33 6 -56 27 -29 38 -30 82 -4 l34
20 38 -30 c55 -44 68 -36 16 10 -46 43 -94 53 -105 24 -9 -23 -51 -14 -51 11
0 18 6 20 65 17 59 -3 68 -7 103 -40 26 -25 37 -31 37 -20 0 21 -54 66 -88 75
-15 3 -32 13 -37 20 -8 11 -17 12 -38 4 -34 -13 -37 -13 -37 -3 0 5 51 26 114
46 87 29 126 37 165 35 34 -3 52 0 56 9 6 17 44 15 52 -4 8 -23 -23 -52 -39
-36 -19 19 -135 13 -193 -9 -37 -14 -41 -17 -15 -11 19 4 64 7 100 7 51 0 65
-3 65 -15 0 -12 -11 -14 -50 -12 -40 2 -55 -1 -68 -16 -15 -16 -15 -20 -1 -40
11 -17 21 -21 40 -16 15 4 34 0 49 -10 13 -9 35 -16 47 -16 l23 0 -21 13 c-12
6 -34 21 -49 31 -21 15 -31 17 -45 8 -19 -12 -30 -7 -30 14 0 21 71 5 101 -22
14 -13 32 -24 40 -24 16 0 39 44 39 76 0 12 7 27 15 34 20 17 19 53 -3 73 -24
22 -35 21 -81 -5 -27 -15 -45 -19 -65 -14 -28 7 -26 9 70 80 55 40 110 85 124
99 31 33 41 33 68 4 21 -22 22 -27 10 -75 -9 -40 -9 -64 0 -103 7 -28 12 -62
12 -77 l0 -26 -20 20 c-16 16 -20 34 -21 87 -1 37 -5 70 -10 73 -5 3 -9 -33
-9 -80 0 -74 2 -85 18 -91 27 -8 45 -51 31 -76 -14 -27 -49 -39 -74 -26 -42
21 -46 57 -12 90 21 20 23 28 17 82 -7 56 -7 57 -9 15 0 -25 -10 -62 -21 -83
-11 -20 -20 -48 -20 -61 0 -27 42 -66 69 -66 29 0 60 30 66 63 6 30 9 32 48
31 38 -1 38 -1 6 3 l-37 4 -7 95 c-6 82 -4 99 12 134 l20 39 -51 44 c-28 25
-48 48 -44 52 4 4 30 -14 57 -40 51 -48 51 -48 74 -29 12 10 24 20 26 22 3 1
-15 22 -38 46 -29 30 -49 42 -60 38 -14 -5 -14 -4 -1 12 13 17 18 14 67 -37
51 -53 55 -55 113 -59 l60 -3 -1 30 c0 24 -13 41 -67 86 -48 39 -73 54 -85 50
-15 -6 -9 -13 30 -39 103 -69 116 -94 42 -85 -27 4 -49 17 -80 49 -39 40 -41
45 -27 61 8 10 18 26 21 36 4 10 11 17 17 15 5 -2 45 -34 89 -73 70 -61 80
-74 78 -100 -2 -27 1 -30 31 -33 29 -3 32 -6 32 -38 0 -23 -4 -33 -11 -29 -7
5 -7 2 0 -11 6 -11 15 -35 20 -54 7 -29 9 -22 9 45 1 82 -13 115 -45 115 -7 0
-18 12 -24 27 -6 16 -18 36 -26 45 -9 10 -12 18 -7 18 5 0 39 -27 74 -60 81
-75 105 -83 137 -46 28 33 29 46 2 80 -18 23 -27 27 -58 22 -33 -5 -41 -1 -99
52 -52 47 -62 62 -62 90 0 21 5 32 14 32 25 0 70 -49 71 -77 0 -14 7 -29 15
-33 93 -46 112 -49 143 -23 33 30 10 103 -33 103 -9 0 -11 9 -5 33 4 17 7 43
6 57 -7 151 -10 380 -6 398 4 18 12 22 44 22 73 0 106 79 58 137 -13 15 -29
37 -35 48 -10 18 -11 15 -12 -18 0 -23 4 -36 10 -32 26 16 6 -14 -32 -48 -24
-21 -34 -34 -23 -29 11 6 31 22 44 36 29 31 37 32 51 7 11 -21 3 -54 -11 -45
-5 3 -6 -1 -3 -9 12 -31 -59 -44 -86 -17 -25 25 -20 79 9 98 12 8 21 24 21 35
0 18 -6 14 -39 -21 -32 -34 -41 -39 -51 -27 -19 23 -4 75 30 107 26 23 35 26
46 17 19 -16 30 -4 14 16 -15 18 -6 45 15 45 21 0 30 -27 15 -45 -6 -8 -10
-20 -8 -27 3 -7 12 2 22 21 17 32 17 34 -1 53 -17 17 -23 17 -47 7 -24 -11
-30 -10 -53 13 l-26 26 32 29 c39 35 52 77 37 123 -12 38 -66 80 -102 80 -13
0 -24 6 -25 13 0 6 -3 24 -5 40 -7 39 11 34 33 -10 25 -47 45 -52 78 -19 24
24 25 28 12 53 -8 16 -12 45 -10 68 4 33 0 44 -22 65 -53 50 -114 26 -136 -53
-11 -42 -71 -78 -109 -66 -14 5 -42 11 -63 14 -21 3 -39 11 -41 18 -2 7 -8 27
-14 45 -10 30 -9 34 11 42 18 7 14 9 -22 9 l-44 1 7 38 c3 21 1 54 -4 74 -7
25 -7 50 0 80 14 55 15 58 7 89 l-7 26 80 5 c44 3 116 3 160 0 l80 -5 -2 -56
c-1 -31 3 -64 8 -73 6 -11 10 7 11 58 2 103 -6 108 -182 109 -156 0 -169 -6
-180 -86 -10 -72 -25 -60 -25 19 0 55 -4 72 -19 86 -27 25 -60 12 -68 -25 -6
-30 -17 -37 -29 -18 -3 6 -22 9 -43 6 -27 -3 -42 1 -58 16 -18 16 -27 18 -45
10 -18 -8 -29 -6 -50 10 -27 20 -28 20 -48 2 -17 -16 -24 -17 -38 -7 -47 34
-62 36 -90 15 -35 -26 -40 -70 -12 -103 24 -27 23 -53 -3 -58 -12 -3 -17 3
-17 21 0 13 -9 32 -20 42 -20 18 -21 18 -50 -3 l-29 -22 -10 38 c-6 20 -11 42
-11 48 0 6 -12 17 -26 25 -25 13 -28 12 -54 -19 -15 -19 -30 -47 -34 -63 -3
-17 -12 -29 -21 -29 -12 0 -14 4 -5 19 16 32 12 60 -15 86 -32 33 -72 32 -106
-1 -15 -14 -42 -29 -61 -33 -28 -7 -36 -4 -54 18 -19 22 -25 24 -50 15 -24 -8
-34 -7 -56 9 -24 18 -31 18 -58 7 -26 -11 -35 -10 -63 4 -46 25 -82 9 -105
-45 l-18 -42 -20 24 c-26 33 -83 79 -97 79 -6 0 14 -26 46 -58 76 -76 73 -88
-5 -18 -46 42 -64 53 -74 45 -9 -7 -19 -7 -34 1 -18 9 -25 8 -41 -6 -27 -24
-24 -32 24 -76 58 -54 69 -59 98 -43 45 26 49 27 64 15 10 -8 13 -21 8 -39 -8
-34 -10 -36 -27 -22 -8 7 -28 10 -45 8 -24 -4 -39 2 -73 31 -69 59 -76 66 -79
86 -2 10 -16 28 -31 39 -25 18 -29 19 -45 6 -21 -18 -30 -18 -60 -1 -35 19
-104 29 -146 20z m1887 -34 c3 -9 3 -20 0 -26 -4 -6 -6 -67 -6 -136 l1 -125
60 -61 c49 -50 61 -68 61 -94 0 -32 1 -32 48 -32 39 0 53 -5 72 -25 23 -25 24
-25 42 -5 10 11 24 20 31 20 23 1 67 49 67 73 0 37 34 63 68 51 22 -8 28 -16
30 -47 3 -32 0 -38 -23 -47 -17 -6 -33 -7 -44 0 -14 7 -23 4 -40 -14 -19 -20
-20 -24 -6 -36 24 -20 18 -57 -11 -77 -24 -15 -29 -15 -53 -1 -25 15 -27 14
-68 -25 -24 -23 -46 -37 -50 -33 -4 4 11 25 35 47 23 22 42 43 42 46 0 4 -10
17 -22 30 -18 19 -32 23 -80 23 l-58 0 0 43 c0 40 -4 46 -61 96 -57 51 -61 56
-57 92 3 34 1 38 -22 41 -34 4 -35 48 -2 63 19 8 22 17 22 62 0 39 -4 53 -14
53 -17 0 -28 24 -20 45 8 20 50 19 58 -1z m-1534 -8 c0 -20 -19 -31 -32 -18
-6 6 -7 15 -4 21 10 16 36 13 36 -3z m419 0 c13 -16 -1 -56 -19 -56 -33 0 -55
42 -33 63 11 12 40 8 52 -7z m911 -12 c0 -19 -28 -30 -42 -16 -8 8 -8 15 1 26
14 17 41 10 41 -10z m-815 -4 c0 -8 -8 -16 -17 -18 -13 -2 -18 3 -18 18 0 15
5 20 18 18 9 -2 17 -10 17 -18z m-427 -29 c6 -40 -39 -56 -58 -20 -9 15 -8 24
1 35 18 22 53 13 57 -15z m1242 -34 c0 -7 -4 -18 -9 -26 -18 -28 -80 31 -67
65 4 11 12 10 41 -7 19 -12 35 -26 35 -32z m158 -1 c3 -19 -5 -34 -26 -54 -16
-15 -31 -33 -33 -40 -5 -16 -39 -5 -39 12 0 6 14 19 30 28 31 18 55 62 44 80
-4 6 -1 9 7 6 8 -2 15 -17 17 -32z m-1138 6 c0 -4 -9 -13 -19 -19 -11 -7 -24
-27 -30 -46 -7 -20 -22 -39 -37 -46 -34 -15 -34 -15 -34 23 0 36 28 66 61 66
9 0 22 7 29 15 13 16 30 20 30 7z m657 -8 c3 -8 1 -20 -6 -27 -14 -14 -47 15
-37 32 10 16 36 13 43 -5z m-1043 -55 c14 -17 26 -34 26 -38 0 -9 -69 -71 -79
-71 -3 0 -6 36 -6 79 0 88 7 92 59 30z m1268 24 c52 -50 26 -90 -38 -59 -43
20 -52 41 -29 66 24 26 33 25 67 -7z m-1152 -122 c0 -45 -12 -58 -30 -36 -7 8
-19 15 -26 15 -22 0 -16 27 8 44 36 26 48 20 48 -23z m1321 -26 c35 -33 66
-55 80 -55 25 0 69 -36 69 -56 0 -26 -29 -21 -66 13 -21 19 -67 55 -101 80
-62 44 -70 53 -56 66 11 11 14 9 74 -48z m179 -2 c0 -26 -12 -30 -29 -9 -7 8
-9 25 -5 42 7 26 8 26 20 9 8 -11 14 -29 14 -42z m-1565 -23 c11 18 25 11 25
-14 0 -21 -5 -24 -40 -24 -32 -1 -40 3 -40 18 0 21 20 31 37 18 7 -5 14 -5 18
2z m-37 -89 c-5 -9 -21 -24 -34 -34 -22 -17 -25 -17 -49 -1 -32 21 -32 25 6
62 l32 31 28 -21 c21 -16 25 -24 17 -37z m1616 -26 c3 -9 -1 -18 -10 -22 -19
-7 -39 11 -30 26 10 16 33 13 40 -4z m-1704 -35 c0 -21 -24 -28 -35 -10 -8 14
3 30 21 30 8 0 14 -9 14 -20z m1732 -32 c3 -31 6 -33 43 -36 94 -6 108 -26 56
-76 l-29 -28 -52 76 c-46 69 -55 96 -30 96 5 0 10 -15 12 -32z m-1785 -12 c-2
-6 -20 -10 -42 -8 -30 3 -44 -2 -66 -24 -16 -15 -31 -25 -34 -22 -11 11 56 63
87 68 39 7 60 2 55 -14z m2188 -21 c0 -30 -39 -27 -43 3 -3 20 0 23 20 20 15
-2 23 -10 23 -23z m-2182 -26 c-21 -31 -31 -39 -47 -35 -12 3 -31 6 -43 6 -14
0 -23 6 -23 15 0 18 46 38 72 32 9 -3 25 1 35 9 32 24 34 15 6 -27z m-55 -62
c2 -10 -3 -17 -12 -17 -10 0 -16 9 -16 21 0 24 23 21 28 -4z m2055 -13 c9 -10
-12 -44 -27 -44 -36 0 -53 -70 -30 -127 7 -18 10 -33 6 -33 -9 1 -62 120 -62
139 0 35 91 86 113 65z m-2085 -49 c2 -1 -15 -45 -37 -96 -21 -52 -42 -114
-46 -139 -11 -71 -25 -120 -35 -120 -18 0 -10 46 25 146 27 74 36 115 36 162
l0 64 27 -7 c15 -4 28 -8 30 -10z m2145 -124 c31 -16 32 -18 13 -62 l-15 -34
-20 45 c-21 46 -27 74 -13 68 4 -2 19 -10 35 -17z m-74 -108 c25 -70 33 -133
17 -133 -10 0 -56 162 -56 194 0 21 20 -10 39 -61z m-1909 -93 c-59 -6 -61 -7
-20 -9 35 -2 41 -4 25 -11 -28 -12 -105 -12 -105 0 0 6 6 10 13 11 6 0 3 4 -8
9 -13 6 12 8 70 8 l90 -1 -65 -7z m1880 -125 c0 -11 12 -15 51 -15 l52 0 -6
-132 c-5 -119 -10 -146 -48 -263 -23 -71 -41 -140 -41 -153 -1 -26 21 -52 104
-123 49 -44 59 -48 76 -38 29 18 54 4 50 -28 -7 -59 -40 -42 -180 95 -83 80
-83 84 -27 247 38 110 41 131 46 253 l6 132 -42 0 -41 0 0 -69 c0 -134 -48
-315 -115 -438 -158 -288 -430 -484 -744 -537 -125 -21 -121 -22 -121 18 0 35
12 46 55 46 12 0 66 11 119 25 180 45 331 136 466 280 l65 69 -89 -82 c-49
-45 -93 -82 -98 -82 -5 0 35 42 88 93 101 96 157 164 192 234 33 63 70 203 78
288 l7 75 33 0 c34 0 46 -14 22 -23 -8 -3 -6 -6 5 -6 13 -1 17 7 17 38 0 22 3
46 6 54 3 10 -3 16 -20 19 -29 6 -36 -8 -8 -15 9 -3 -23 -6 -73 -8 -128 -4
-498 0 -503 6 -3 3 62 5 144 5 317 2 374 4 374 18 0 10 13 13 43 11 28 -2 41
1 40 9 -2 7 2 12 7 12 6 0 10 -7 10 -15z m-30 -69 c0 -21 -53 -25 -312 -27
-198 -1 -238 -3 -238 -15 0 -8 -5 -14 -11 -14 -6 0 -9 7 -5 15 3 8 1 15 -4 15
-5 0 -11 -15 -13 -32 -3 -29 -4 -27 -5 9 l-2 43 83 0 c45 0 110 1 144 2 33 2
59 0 57 -4 -3 -4 50 -6 116 -5 88 1 120 5 120 15 0 7 14 12 35 12 23 0 35 -5
35 -14z m88 -71 c-2 -36 -8 -60 -15 -63 -10 -3 -13 14 -13 61 0 35 3 67 7 71
15 15 24 -14 21 -69z m-1684 34 c14 -7 22 -17 19 -23 -4 -6 1 -5 10 3 10 8 21
11 24 7 13 -12 11 -35 -3 -47 -9 -7 -14 -31 -14 -63 0 -29 -5 -57 -12 -64 -9
-9 -9 -12 3 -13 7 -1 17 -1 22 0 11 2 8 -27 -4 -31 -5 -2 -27 -2 -48 0 -34 3
-38 7 -33 25 5 21 4 21 -15 5 -31 -28 -52 -23 -51 12 1 23 5 30 17 28 9 -2 15
-11 13 -21 -3 -20 13 -23 25 -5 10 18 4 71 -10 80 -8 5 -6 9 6 14 9 3 17 12
17 19 0 7 6 15 13 18 6 2 10 7 7 10 -3 4 -18 -4 -33 -18 -25 -20 -67 -27 -106
-16 -2 1 2 8 9 16 13 15 -8 17 -196 20 -17 0 -31 5 -31 12 0 8 27 12 85 12 47
0 88 5 91 10 14 21 154 28 195 10z m-514 -104 c15 -101 53 -220 96 -309 19
-37 34 -71 34 -75 0 -4 -12 -8 -27 -10 -86 -8 -83 -10 -62 45 11 29 8 45 -29
162 -40 120 -51 194 -43 282 3 32 18 -15 31 -95z m1993 78 c-17 -2 -37 -11
-43 -19 -14 -16 -30 -19 -30 -4 0 6 7 10 15 10 8 0 15 5 15 10 0 6 17 9 38 8
35 -1 36 -1 5 -5z m-171 -25 c3 -7 4 -48 2 -90 -1 -43 2 -78 7 -78 5 0 9 5 9
11 0 6 15 0 33 -12 l32 -23 -22 25 c-26 28 -31 48 -8 29 8 -7 15 -9 15 -5 0 5
10 0 23 -11 12 -10 16 -12 10 -4 -7 8 -13 22 -13 32 0 15 7 11 30 -15 30 -35
38 -57 21 -57 -6 0 -9 -19 -9 -41 0 -23 -5 -45 -12 -49 -8 -5 -9 -16 -5 -30 5
-14 3 -20 -3 -16 -6 3 -13 0 -15 -6 -3 -7 -6 8 -6 34 -1 64 -15 94 -45 102
-14 3 -26 11 -26 16 0 6 -9 10 -20 10 -19 0 -20 7 -20 95 0 84 9 119 22 83z
m-127 -19 c4 -13 2 -24 -4 -29 -9 -5 -8 -10 4 -20 20 -16 19 -49 -1 -57 -8 -3
-23 1 -32 10 -13 14 -14 20 -3 40 7 13 12 30 11 38 -6 41 14 55 25 18z m295
-9 c0 -27 -19 -35 -38 -17 -12 13 -13 19 -3 31 16 19 41 10 41 -14z m-1807 3
c-10 -3 -10 -8 1 -18 10 -11 47 -15 135 -16 112 -1 121 -2 121 -20 0 -21 -25
-26 -33 -6 -3 6 -6 0 -6 -15 -1 -35 -21 -37 -21 -3 0 16 -6 25 -15 25 -11 0
-15 -12 -15 -45 0 -45 0 -45 -36 -45 -43 0 -42 23 2 29 l29 4 -30 6 c-20 4
-31 13 -35 29 -9 38 -25 30 -28 -14 -2 -34 1 -45 21 -60 l24 -19 -44 -27 -44
-28 -11 25 c-9 20 -9 28 2 38 10 10 12 8 7 -12 l-6 -23 25 23 c18 16 21 25 12
30 -7 5 -11 23 -10 42 2 19 -1 38 -7 42 -6 3 -11 -1 -11 -9 0 -9 -7 -16 -16
-16 -11 0 -14 8 -12 24 1 13 -6 33 -16 45 -19 21 -19 21 5 20 13 0 18 -3 12
-6z m156 -10 c0 -13 -2 -14 -6 -4 -5 11 -7 11 -14 0 -7 -12 -9 -12 -9 0 0 11
-3 11 -15 1 -9 -7 -15 -8 -15 -2 0 12 -33 10 -42 -3 -4 -6 -8 -2 -8 8 0 14 9
17 55 17 46 0 55 -3 54 -17z m1561 -39 c0 -40 -4 -55 -12 -52 -26 9 -18 108 8
108 2 0 4 -25 4 -56z m62 -19 c5 -18 6 -18 7 3 1 14 5 21 12 16 6 -4 8 -20 5
-39 -4 -20 -2 -35 4 -37 8 -2 8 -11 1 -28 -6 -15 -10 -18 -10 -9 -1 9 -10 24
-22 35 -28 26 -40 50 -33 68 8 21 27 16 36 -9z m225 9 c8 -21 -13 -42 -28 -27
-13 13 -5 43 11 43 6 0 13 -7 17 -16z m-1977 -59 c0 -18 -4 -23 -15 -19 -8 4
-15 15 -15 25 0 10 7 19 15 19 9 0 15 -9 15 -25z m416 0 c-3 -8 0 -15 7 -15 8
0 6 -4 -3 -10 -8 -5 -10 -10 -4 -10 6 0 11 -7 11 -15 0 -8 -4 -15 -9 -15 -5 0
-6 -4 -3 -10 3 -5 -3 -10 -14 -10 -18 0 -21 6 -21 50 0 44 2 50 21 50 15 0 19
-5 15 -15z m1544 -16 c0 -11 -12 -55 -26 -97 -38 -114 -41 -163 -14 -206 12
-20 18 -36 13 -36 -12 1 -93 76 -93 87 0 6 13 39 29 74 16 35 39 97 51 136 20
68 40 88 40 42z m-1773 2 c-2 -10 -1 -25 4 -32 6 -11 12 -11 33 1 27 14 43 9
31 -10 -4 -6 -13 -9 -21 -6 -18 7 -18 -3 0 -23 10 -11 16 -42 17 -89 l2 -74
-52 -51 c-42 -43 -53 -49 -61 -37 -13 20 -12 30 1 30 5 0 7 -4 4 -10 -17 -27
17 -5 54 35 37 41 41 49 41 98 0 44 -4 58 -22 73 -23 19 -23 19 -5 -2 11 -14
17 -38 17 -72 0 -43 -3 -50 -16 -45 -12 4 -15 2 -12 -8 4 -12 -13 -39 -25 -39
-3 0 -4 20 -2 45 1 25 -1 45 -6 45 -4 0 -6 9 -4 20 2 11 -1 20 -7 20 -6 0 -5
7 3 18 11 15 11 15 -1 4 -11 -9 -15 -35 -15 -84 0 -48 -4 -73 -12 -75 -7 -3
-13 2 -13 10 0 15 -38 54 -49 49 -3 -1 -7 10 -9 24 -3 21 -6 24 -13 13 -6 -9
-9 2 -9 36 0 28 4 55 8 61 10 15 51 36 60 30 4 -2 21 11 37 29 34 38 50 44 42
16z m1389 -28 c7 -10 14 -26 14 -35 0 -10 7 -18 15 -18 11 0 15 -12 15 -44 0
-25 -4 -47 -8 -50 -15 -9 -30 10 -35 44 l-4 35 -1 -37 c-2 -28 3 -40 18 -48
17 -9 23 -6 39 21 15 24 17 38 10 57 -11 28 -9 31 19 37 18 3 20 0 13 -18 -4
-12 -6 -37 -4 -54 3 -22 0 -33 -8 -33 -7 0 -67 -53 -134 -118 -66 -65 -157
-152 -202 -194 -45 -41 -79 -78 -76 -82 8 -8 101 74 275 243 81 79 148 139
148 134 0 -13 -300 -307 -369 -361 -45 -36 -60 -42 -101 -42 -45 0 -47 1 -42
25 3 19 11 25 31 27 45 2 49 3 58 12 4 5 3 6 -4 2 -19 -10 -16 -1 4 15 14 12
16 12 8 0 -7 -13 -6 -13 12 0 34 24 291 273 293 284 1 6 7 17 13 25 17 21 -99
-86 -153 -142 -42 -44 -68 -59 -71 -40 -7 49 -3 72 12 72 18 0 21 -30 4 -42
-6 -5 -6 -8 2 -8 7 0 16 7 21 16 5 9 39 46 76 84 l67 67 2 73 c3 57 0 73 -12
78 -8 3 -17 0 -19 -6 -4 -14 -22 -16 -22 -3 0 37 73 54 96 24z m-1209 -54 c3
-11 9 -19 14 -19 5 0 8 -15 8 -32 l-1 -33 -8 30 -8 30 -1 -27 c0 -16 -5 -28
-11 -28 -5 0 -10 -4 -10 -10 0 -5 6 -7 13 -5 6 3 18 -4 25 -16 12 -19 11 -24
-6 -42 -20 -19 -48 -15 -36 5 5 7 1 9 -9 5 -18 -7 -24 8 -7 18 6 3 9 27 8 53
l-1 47 -6 -47 c-5 -42 -14 -55 -85 -128 -43 -44 -81 -78 -84 -75 -3 3 22 34
56 68 35 35 59 67 55 72 -4 4 -3 5 3 2 23 -13 44 28 42 81 -1 29 -6 52 -10 52
-4 0 -5 6 -2 14 7 19 56 7 61 -15z m-76 9 c0 -7 2 -37 5 -65 3 -42 1 -53 -11
-53 -12 0 -15 14 -15 65 0 37 4 65 10 65 6 0 10 -6 11 -12z m1212 -11 c8 -21
-1 -99 -12 -110 -6 -6 -11 -7 -12 -1 0 5 -2 29 -5 53 -6 46 0 71 15 71 5 0 11
-6 14 -13z m169 -162 c-53 -68 -217 -225 -230 -220 -8 3 -10 0 -6 -7 5 -7 3
-8 -6 -3 -9 6 -11 4 -5 -5 6 -9 4 -11 -5 -5 -9 6 -11 4 -5 -5 6 -9 4 -11 -4
-5 -9 5 1 21 35 56 26 26 52 45 57 42 6 -3 7 -1 4 4 -7 10 8 28 28 35 6 1 9 6
8 10 -2 4 11 15 27 25 17 9 30 22 30 28 0 11 66 80 77 80 3 0 6 29 6 65 l0 65
6 -65 c5 -58 4 -68 -17 -95z m-985 69 c-3 -4 0 -16 8 -28 26 -37 18 -52 -13
-23 -24 23 -37 27 -86 27 -31 0 -67 -5 -78 -11 -13 -7 -18 -7 -14 -1 4 6 -2
15 -11 21 -17 10 -17 10 0 11 9 0 17 -4 17 -10 0 -5 5 -10 11 -10 5 0 8 4 5 9
-4 5 2 7 12 5 9 -3 28 -1 42 5 27 11 117 15 107 5z m253 -33 c0 -6 14 -11 31
-13 l31 -3 2 -73 1 -72 -132 0 c-119 0 -133 2 -133 17 0 12 -11 7 -40 -22 -21
-21 -37 -41 -35 -45 8 -13 -89 -100 -103 -91 -9 5 15 35 83 101 94 93 95 94
95 142 0 47 1 48 30 48 17 0 30 5 30 10 0 6 30 10 70 10 39 0 70 -4 70 -9z
m384 -66 c0 -52 -3 -60 -20 -61 -10 -1 -44 -2 -74 -4 -30 -1 -45 -5 -32 -7 14
-3 22 -12 23 -26 2 -22 2 -22 6 1 3 17 11 22 34 22 23 0 29 -5 30 -22 l2 -23
4 23 c2 12 9 22 14 22 6 0 8 -4 4 -9 -3 -5 -1 -12 5 -16 27 -17 2 -25 -79 -25
l-90 0 -3 91 c-2 50 -2 91 -1 92 1 1 41 2 89 2 l88 0 0 -60z m-724 30 c54 0
55 0 56 -30 0 -16 -1 -36 -4 -42 -6 -18 -32 -16 -32 2 0 8 -4 15 -10 15 -5 0
-10 7 -10 15 0 8 -7 15 -15 15 -11 0 -15 -12 -15 -45 l0 -45 -37 0 -38 0 -2
47 c-3 52 -17 76 -28 45 -4 -14 -12 -19 -23 -15 -13 4 -13 2 3 -10 16 -13 17
-17 6 -31 -9 -11 -10 -16 -2 -16 6 0 11 -4 11 -10 0 -5 -11 -10 -24 -10 -22 0
-24 4 -25 64 -1 56 1 64 16 60 10 -2 37 -5 61 -7 33 -4 42 -1 43 12 0 14 1 14
7 1 5 -12 22 -16 62 -15z m479 -2 c-13 -3 -16 -14 -13 -51 2 -26 1 -41 -2 -34
-3 6 -12 12 -20 12 -9 0 -14 11 -14 33 0 41 6 47 39 46 15 -1 19 -3 10 -6z
m1001 -18 c0 -20 5 -25 24 -25 13 0 27 7 30 16 9 24 60 14 64 -13 5 -31 -33
-50 -57 -29 -10 9 -32 16 -49 16 -29 0 -32 3 -32 30 0 17 5 30 10 30 6 0 10
-11 10 -25z m-1696 -6 c-3 -6 -16 -8 -29 -5 -12 3 -25 3 -28 0 -11 -11 21 -34
48 -34 16 0 24 -4 19 -11 -3 -6 -17 -9 -30 -6 -23 4 -28 -3 -25 -30 1 -6 -9
-14 -21 -16 -13 -2 3 -2 34 0 47 4 59 2 64 -11 7 -18 35 -22 32 -5 -2 6 5 16
14 22 14 9 21 8 35 -5 16 -16 16 -19 -2 -38 -14 -16 -30 -20 -74 -19 -40 1
-49 3 -31 8 24 7 24 8 -10 16 -65 16 -114 12 -127 -10 -9 -15 -12 -16 -13 -4
0 8 4 19 9 25 6 5 11 34 13 64 3 54 3 55 38 61 59 11 92 10 84 -2z m746 -9 c0
-14 -7 -20 -21 -20 -12 0 -18 4 -13 11 3 6 0 15 -7 20 -10 6 -6 9 14 9 20 0
27 -5 27 -20z m0 -71 c0 -33 -3 -40 -17 -37 -10 2 -18 9 -17 16 1 6 2 23 3 37
0 15 7 25 16 25 11 0 15 -11 15 -41z m-79 -5 c13 -14 46 -44 72 -66 45 -38 50
-40 74 -27 22 12 27 11 39 -5 10 -14 11 -23 3 -33 -15 -18 -49 -17 -49 2 0 9
-9 15 -23 15 -15 0 -47 24 -92 70 -38 39 -65 70 -59 70 6 0 21 -12 35 -26z
m-391 6 c0 -5 -13 -10 -30 -10 -16 0 -30 5 -30 10 0 6 14 10 30 10 17 0 30 -4
30 -10z m-680 -19 c0 -6 -4 -13 -10 -16 -5 -3 -10 -11 -10 -18 0 -6 6 -2 14 8
8 11 19 16 30 12 24 -9 16 -42 -10 -41 -16 0 -20 -5 -16 -22 7 -36 -27 -47
-66 -22 -18 11 -32 22 -32 24 0 2 14 11 30 19 17 9 36 27 42 40 11 25 28 34
28 16z m630 -6 c15 -18 5 -35 -20 -35 -10 0 -22 5 -25 10 -7 11 12 40 25 40 4
0 13 -7 20 -15z m456 -43 c13 4 16 -54 4 -72 -8 -13 -11 -13 -19 -1 -7 11 -11
10 -20 -7 -32 -60 10 -128 76 -120 26 3 30 1 21 -10 -8 -8 -26 -12 -49 -10
-22 2 -41 -2 -49 -11 -40 -42 237 43 303 94 25 19 48 31 52 27 3 -4 5 0 3 8
-2 8 4 15 13 15 9 0 24 6 33 14 9 8 19 11 22 8 16 -15 -158 -115 -263 -151
-80 -27 -204 -51 -224 -43 -8 3 -2 6 14 6 28 1 35 19 15 39 -18 18 -27 14 -21
-10 4 -16 2 -20 -5 -13 -11 11 -21 95 -12 95 3 0 11 -5 18 -12 9 -9 12 -4 12
26 0 22 4 35 10 31 6 -3 10 5 10 19 0 14 4 27 9 30 4 3 11 20 15 38 5 23 9 29
15 20 4 -8 12 -12 17 -10z m-636 -22 c65 0 85 3 95 17 14 19 35 9 35 -18 0
-18 -8 -19 -130 -19 -71 0 -130 3 -130 6 0 3 5 15 11 26 11 20 13 20 24 5 10
-14 29 -17 95 -17z m861 -9 c4 7 11 10 15 6 10 -10 -16 -38 -29 -30 -5 3 -7 1
-3 -5 3 -6 2 -13 -4 -17 -6 -3 -10 4 -10 18 0 27 12 45 19 26 2 -8 6 -8 12 2z
m-878 -34 c21 13 37 12 37 -3 0 -9 -11 -14 -30 -14 -22 0 -30 5 -29 18 0 10 3
12 6 4 2 -6 10 -9 16 -5z m727 -47 c12 -22 -14 -60 -40 -60 -40 0 -51 74 -12
83 24 5 41 -2 52 -23z m-972 -103 c4 -20 -25 -34 -40 -19 -15 15 -1 44 19 40
10 -2 19 -11 21 -21z m17 -78 c0 -7 -8 -15 -17 -17 -18 -3 -25 18 -11 32 10
10 28 1 28 -15z m35 -44 c0 -14 -10 -35 -22 -47 l-23 -23 -3 28 c-2 17 4 37
14 48 23 26 34 24 34 -6z m1326 -26 c10 -17 -13 -36 -27 -22 -12 12 -4 33 11
33 5 0 12 -5 16 -11z"/>
<path d="M2244 2208 c-3 -5 -2 -14 4 -20 13 -13 45 -2 40 14 -5 15 -36 19 -44
6z"/>
<path d="M2706 2012 c-7 -6 16 -52 25 -52 4 0 11 5 14 10 4 6 11 8 16 5 5 -4
9 1 9 9 0 22 -49 44 -64 28z"/>
<path d="M2537 1082 c-5 -26 -9 -28 -39 -25 -28 3 -30 2 -11 -6 47 -21 55 -18
60 22 4 44 -2 49 -10 9z"/>
<path d="M712 816 c1 -50 2 -53 5 -18 2 23 7 42 11 42 4 0 6 -17 4 -38 -3 -25
1 -42 11 -51 13 -10 16 -3 19 53 3 64 3 65 -24 69 l-28 4 2 -61z"/>
<path d="M1460 721 c19 -11 171 -10 164 1 -3 4 -44 8 -92 8 -54 0 -81 -4 -72
-9z"/>
<path d="M1823 674 c7 -7 107 -7 115 0 3 3 -23 6 -58 6 -35 0 -61 -3 -57 -6z"/>
<path d="M1724 429 c-8 -14 11 -33 25 -25 16 10 13 36 -3 36 -8 0 -18 -5 -22
-11z"/>
<path d="M1865 2391 c6 -11 4 -13 -8 -8 -12 4 -14 2 -10 -10 5 -12 3 -14 -8
-8 -8 4 -7 0 4 -11 16 -17 18 -17 34 -1 16 16 16 18 -1 35 -11 10 -15 11 -11
3z"/>
<path d="M1016 2383 c-13 -13 -5 -30 19 -41 21 -10 27 -9 31 3 3 8 4 20 1 27
-3 7 -6 3 -6 -10 -1 -20 -4 -21 -21 -12 -11 6 -20 16 -19 23 0 9 2 9 6 0 5
-15 23 -17 23 -4 0 11 -26 22 -34 14z"/>
<path d="M384 2366 c-17 -8 -43 -29 -56 -47 -29 -39 -52 -99 -37 -99 5 0 9 7
9 16 0 28 32 85 57 101 13 8 40 21 61 29 21 7 28 13 17 13 -11 0 -34 -6 -51
-13z"/>
<path d="M485 2371 c64 -16 121 -69 132 -122 3 -16 9 -29 14 -29 9 0 -1 32
-26 80 -18 34 -91 80 -126 79 -21 -1 -20 -2 6 -8z"/>
<path d="M405 2346 c-61 -28 -113 -108 -84 -128 11 -7 11 -11 2 -15 -33 -13 5
-88 61 -122 20 -13 34 -27 30 -32 -3 -5 4 -9 15 -9 12 0 21 5 21 10 0 6 11 10
24 10 24 0 92 41 113 69 21 29 26 64 8 73 -8 5 -13 14 -10 19 4 5 11 7 16 4
17 -11 9 22 -13 55 -47 68 -121 95 -183 66z m65 -12 c0 -9 -6 -14 -14 -11 -7
3 -32 -6 -56 -19 -23 -13 -46 -24 -51 -24 -18 0 27 39 61 54 45 20 60 20 60 0z
m55 -59 c14 -13 25 -31 25 -39 0 -8 6 -17 13 -20 10 -5 10 -7 0 -12 -7 -3 -13
-11 -13 -18 0 -28 -52 -66 -90 -66 -39 0 -90 31 -90 55 0 7 -7 18 -16 26 -14
11 -14 13 0 21 9 5 16 15 16 23 0 25 50 55 92 55 28 0 46 -7 63 -25z"/>
<path d="M450 2270 c0 -28 -35 -64 -54 -57 -9 4 -16 2 -16 -3 0 -6 10 -10 23
-10 28 0 47 -17 47 -42 0 -10 5 -18 10 -18 6 0 10 8 10 18 0 23 19 42 42 42
10 0 18 4 18 10 0 5 -7 7 -15 3 -19 -7 -44 23 -45 55 0 12 -4 22 -10 22 -5 0
-10 -9 -10 -20z m27 -46 c8 -21 -13 -42 -28 -27 -13 13 -5 43 11 43 6 0 13 -7
17 -16z"/>
<path d="M1280 2305 c-69 -18 -133 -36 -143 -40 -15 -6 -35 -51 -26 -59 2 -2
47 7 99 20 52 14 134 27 183 31 71 5 87 9 87 22 0 9 -10 21 -22 26 -13 6 -22
16 -20 23 3 17 -18 14 -158 -23z"/>
<path d="M1610 2300 c0 -33 3 -40 20 -40 17 0 20 7 20 40 0 33 -3 40 -20 40
-17 0 -20 -7 -20 -40z"/>
<path d="M2465 2325 c-33 -17 -75 -72 -75 -98 0 -19 36 -24 42 -7 2 6 13 12
24 12 11 1 21 8 21 15 0 10 -3 10 -15 0 -13 -10 -14 -9 -10 3 11 35 94 53 120
26 12 -11 17 -11 37 5 l22 18 -33 21 c-39 24 -91 25 -133 5z"/>
<path d="M2624 2272 c-14 -11 -22 -29 -22 -51 0 -18 2 -30 5 -27 3 3 6 19 5
36 -1 39 5 38 23 -2 10 -24 14 -28 15 -13 0 17 2 17 10 5 7 -11 8 -5 4 20 -9
47 -15 52 -40 32z"/>
<path d="M2494 2249 c-3 -6 2 -18 11 -27 10 -10 14 -11 10 -4 -5 10 -1 13 16
12 52 -5 62 -1 49 15 -14 17 -76 20 -86 4z"/>
<path d="M1365 2239 c-72 -7 -185 -32 -230 -49 -20 -8 -25 -16 -24 -42 1 -24
3 -27 6 -10 2 12 13 27 23 32 31 17 180 49 257 56 40 4 73 11 73 15 0 10 -4
10 -105 -2z"/>
<path d="M1490 2098 c1 -84 0 -196 -1 -248 -1 -88 -2 -92 -12 -52 -5 24 -16
42 -23 42 -8 0 -14 5 -14 10 0 6 7 10 15 10 13 0 15 24 15 159 0 154 -1 159
-20 154 -19 -5 -20 -14 -20 -189 0 -101 -3 -184 -7 -184 -5 0 -7 83 -5 185 l2
186 -52 -7 c-57 -6 -185 -37 -230 -55 -27 -11 -28 -14 -28 -81 0 -38 -3 -67
-8 -64 -4 2 -6 32 -5 65 1 34 -1 61 -4 61 -4 0 -25 -11 -49 -25 l-43 -25 -15
22 c-20 28 -10 40 60 69 30 13 54 26 54 31 0 13 -11 10 -77 -19 -51 -23 -63
-32 -63 -52 0 -13 8 -30 18 -37 16 -13 16 -15 -2 -29 -29 -22 -9 -18 33 6 20
11 28 14 18 6 -11 -9 -14 -17 -7 -20 6 -3 5 -4 -2 -3 -33 8 -48 -14 -48 -70 0
-53 -2 -58 -51 -110 -29 -30 -56 -54 -62 -54 -6 0 -3 8 6 18 14 16 13 19 -12
48 l-28 31 -51 -46 c-66 -59 -122 -150 -161 -257 -17 -47 -31 -89 -31 -95 0
-5 49 -9 115 -9 130 0 159 17 38 22 l-78 3 2 45 c2 51 -10 37 -21 -24 -8 -43
-10 -43 -20 -1 -5 23 -4 27 5 15 8 -12 9 -9 4 13 -4 20 -2 27 6 22 7 -5 9 -1
5 11 -3 11 -1 26 4 34 7 11 11 9 19 -13 8 -21 17 -27 40 -27 16 0 31 -6 35
-15 4 -11 22 -15 72 -15 49 0 73 -5 86 -17 11 -10 18 -12 18 -4 0 6 -7 14 -15
17 -18 7 -10 24 12 24 9 0 13 -6 10 -14 -3 -7 0 -19 6 -25 8 -8 7 -11 -3 -11
-11 0 -11 -3 -2 -12 7 -7 12 -29 12 -50 0 -28 4 -38 16 -38 9 0 18 9 21 20 6
23 35 26 53 5 6 -8 17 -13 23 -12 8 1 11 -17 10 -55 0 -32 3 -58 8 -58 5 0 9
32 9 70 l0 70 -29 0 c-53 0 -43 19 11 23 43 3 38 4 -25 5 -62 2 -79 5 -84 18
-9 23 25 48 44 33 7 -6 13 -18 13 -25 0 -10 14 -14 50 -14 l50 0 0 59 c0 58 1
61 42 96 29 25 49 34 63 31 11 -3 34 -6 50 -7 26 -2 25 -3 -10 -9 l-40 -7 38
-2 c25 -1 36 -5 31 -12 -3 -6 -19 -9 -35 -5 -34 6 -36 -3 -10 -35 18 -22 20
-22 26 -6 4 9 13 17 21 17 11 0 14 15 13 63 -1 49 -3 56 -9 32 -6 -24 -8 -26
-9 -7 0 12 -6 22 -12 22 -6 0 -8 -9 -4 -20 4 -11 2 -20 -4 -20 -6 0 -11 9 -11
20 0 11 -5 20 -11 20 -6 0 -8 -9 -4 -20 4 -11 2 -20 -4 -20 -6 0 -12 12 -12
28 -1 19 -3 21 -6 8 -4 -15 -7 -16 -14 -5 -8 12 -11 12 -19 -1 -9 -13 -10 -13
-10 0 0 13 -1 13 -10 0 -6 -10 -10 -11 -10 -2 0 6 -9 12 -20 12 -23 0 -27 25
-5 34 8 3 15 2 15 -3 0 -4 7 -8 15 -8 8 0 15 4 15 9 0 13 38 9 43 -4 4 -10 6
-9 6 1 1 11 4 11 16 1 12 -10 15 -10 15 1 0 10 3 10 12 1 7 -7 17 -8 30 -1 10
5 18 6 18 2 0 -5 56 -7 126 -6 112 2 125 0 123 -15 -3 -29 1 -40 17 -56 14
-15 13 -16 -10 -16 -22 0 -26 5 -26 29 l0 29 -80 4 -80 3 0 -28 c0 -27 2 -28
48 -27 71 3 75 -3 7 -10 -50 -6 -41 -7 58 -8 64 -1 116 1 116 6 -1 4 -1 32 1
62 1 41 4 50 10 35 9 -21 14 -8 11 26 -2 19 25 33 34 19 3 -5 -2 -21 -11 -35
-10 -15 -12 -25 -5 -25 6 0 11 6 11 13 0 9 3 8 9 -2 7 -11 10 -11 15 0 5 12 7
12 12 0 5 -11 8 -11 15 0 7 12 9 12 9 0 0 -11 3 -11 15 -1 12 10 15 10 15 -1
0 -11 2 -11 10 1 8 12 11 13 19 1 7 -11 9 -11 14 0 4 12 7 11 16 -1 9 -12 11
-9 11 14 0 24 -2 27 -15 16 -13 -11 -20 -9 -43 13 -21 20 -31 24 -45 16 -21
-12 -38 -3 -30 16 4 11 -3 15 -26 15 -17 0 -31 5 -31 10 0 6 14 10 30 10 17 0
30 5 30 11 0 7 -10 9 -24 5 -14 -3 -28 -2 -31 4 -4 6 5 10 19 10 24 0 26 4 26
43 0 23 4 48 9 55 14 22 21 -11 21 -95 0 -55 3 -74 13 -70 9 3 11 30 10 99 -1
53 -4 102 -5 109 -2 9 9 15 32 17 27 2 41 -3 58 -21 22 -23 23 -32 20 -130
l-3 -106 23 22 c14 13 34 21 50 20 15 -2 21 0 14 3 -20 9 -3 24 26 24 24 -1
25 -2 10 -14 -12 -8 -14 -16 -7 -23 10 -10 -6 -30 -26 -32 -5 -1 -10 -7 -10
-13 0 -7 -10 -13 -22 -13 -12 0 -25 -3 -29 -7 -4 -4 -13 -3 -21 3 -9 9 -13 8
-13 0 0 -6 3 -11 8 -11 4 0 5 -28 4 -62 -3 -45 -9 -69 -23 -84 -19 -20 -19
-21 3 -41 13 -11 30 -23 38 -27 9 -5 8 -2 -2 7 -17 13 -17 15 3 33 20 18 20
18 15 -11 -4 -21 -2 -25 6 -17 20 20 17 39 -8 63 -23 21 -34 69 -16 69 4 0 26
-18 47 -40 37 -38 42 -40 102 -40 35 0 63 4 63 9 0 6 -9 8 -20 6 -11 -2 -20 0
-20 6 0 5 12 7 26 5 21 -4 38 7 92 59 37 35 69 61 71 59 3 -2 -21 -31 -53 -63
l-57 -58 61 0 c54 0 60 2 54 19 -4 13 0 18 14 18 16 0 20 -7 20 -35 0 -23 -5
-35 -14 -35 -8 0 -14 5 -14 10 0 6 -14 10 -30 10 l-30 0 32 -30 c38 -35 10
-31 -32 4 -16 14 -20 15 -11 4 16 -22 5 -22 -29 -3 -15 9 -19 14 -10 15 13 0
13 1 0 10 -10 6 -21 3 -35 -10 -18 -17 -36 -20 -103 -20 -66 0 -80 -3 -76 -14
5 -14 -25 -37 -54 -42 -21 -4 -52 -35 -46 -46 3 -5 16 -13 28 -18 21 -9 21 -9
0 -9 -11 -1 -24 2 -28 6 -4 4 -19 7 -33 8 -14 0 -28 7 -31 15 -4 13 -3 13 10
2 11 -9 18 -10 23 -2 3 5 0 12 -7 14 -37 12 -39 16 -6 12 25 -3 41 0 51 12 13
15 12 20 -14 47 -23 24 -29 26 -29 13 0 -10 -7 -18 -15 -18 -8 0 -15 7 -15 15
0 8 7 15 15 15 20 0 19 13 -3 33 -27 24 -66 23 -59 -2 2 -10 1 -25 -4 -32 -6
-10 -9 -4 -9 19 0 40 -27 44 -33 5 l-4 -28 -2 28 c-2 38 -19 34 -24 -5 l-4
-33 -1 30 -2 30 -115 -3 -115 -3 0 -34 0 -33 50 3 c44 3 50 1 50 -16 0 -10 4
-19 9 -19 5 0 7 8 4 18 -3 13 2 18 16 18 14 0 21 -7 21 -18 0 -10 4 -18 9 -18
5 0 7 10 4 23 -4 21 -4 21 12 -3 13 -20 15 -21 10 -5 -5 20 -1 21 69 20 71 0
75 -1 80 -25 2 -14 8 -33 11 -42 7 -17 -6 -18 -193 -18 -173 0 -201 -2 -213
-17 -17 -20 -25 -364 -10 -391 7 -11 10 -12 11 -4 0 9 8 12 28 8 34 -7 55 5
50 30 -2 14 -12 19 -33 19 -29 0 -30 2 -32 50 -8 188 -8 195 5 200 10 4 9 10
-4 30 -16 24 -16 27 2 40 24 19 39 19 57 0 9 -8 17 -10 19 -5 2 5 66 12 143
15 77 3 151 6 165 7 l25 3 3 -208 c2 -172 0 -210 -12 -222 -17 -17 -30 -20
-21 -5 4 7 -68 10 -207 10 l-214 0 -32 -33 c-25 -26 -29 -36 -20 -45 7 -7 18
-12 25 -12 7 0 13 -4 13 -10 0 -5 7 -10 15 -10 8 0 15 -4 15 -9 0 -14 -16 -22
-24 -13 -4 4 -12 7 -17 7 -5 0 -9 4 -8 9 1 10 -22 26 -31 21 -3 -2 -4 -19 -2
-37 l4 -33 64 0 c54 0 64 3 64 18 0 9 5 17 10 17 6 0 10 -20 10 -45 l0 -45 60
0 c47 0 60 3 60 15 0 8 5 15 10 15 6 0 10 -7 10 -15 0 -8 5 -15 10 -15 6 0 10
7 10 15 0 8 5 15 10 15 6 0 10 -7 10 -15 0 -8 7 -15 15 -15 8 0 15 9 15 20 0
19 -7 20 -100 20 -55 0 -100 3 -99 8 0 4 4 16 9 27 7 17 9 17 9 3 1 -15 11
-18 59 -19 31 0 81 -3 110 -5 42 -4 52 -2 52 11 0 19 9 19 29 1 12 -10 38 -12
104 -8 l87 5 0 42 c0 42 -18 72 -36 57 -5 -4 -6 -3 -1 2 4 5 -5 22 -20 38 -36
38 -15 36 25 -3 17 -17 36 -28 42 -24 7 5 10 78 9 226 -1 198 -3 221 -20 243
-16 20 -17 25 -4 36 8 6 19 9 24 6 6 -4 10 -99 11 -238 0 -161 4 -236 12 -246
10 -11 8 -17 -9 -30 -20 -17 -20 -17 13 -45 l34 -29 0 327 c0 215 3 324 10
320 6 -3 10 -22 10 -41 0 -32 2 -34 35 -34 32 0 35 2 35 29 0 30 15 50 22 30
2 -6 22 -15 43 -20 l40 -8 -37 2 c-36 3 -38 1 -38 -25 0 -25 3 -28 35 -28 19
0 35 -4 35 -10 0 -5 -22 -10 -50 -10 -38 0 -50 4 -50 15 0 11 -10 15 -37 13
-37 -1 -37 -1 -5 -5 42 -6 42 -23 -1 -23 l-33 0 4 -67 c2 -38 6 -70 9 -73 3
-3 120 -6 261 -7 189 -2 258 1 264 10 4 6 15 12 25 13 51 3 55 4 49 20 -4 9
-1 23 5 30 9 11 8 14 -1 14 -7 0 -19 8 -27 18 -12 14 -14 15 -10 1 8 -23 -48
-29 -272 -28 -155 1 -180 3 -151 12 34 12 33 12 -37 15 -40 2 -73 7 -73 12 0
5 6 7 13 4 23 -8 367 -10 367 -1 0 4 17 5 38 1 20 -4 34 -3 29 1 -4 5 -1 18 7
30 12 19 11 29 -9 86 -34 98 -107 230 -158 287 -38 41 -39 22 -1 -25 55 -69
55 -70 39 -70 -8 0 -12 4 -9 9 3 4 0 8 -6 8 -7 0 -10 -6 -7 -12 2 -7 10 -12
16 -11 14 4 15 -14 1 -22 -5 -3 -10 -14 -9 -23 0 -12 3 -11 9 6 13 32 21 27
13 -10 -3 -18 -2 -29 3 -26 5 3 15 0 22 -8 11 -12 10 -14 -6 -14 -29 0 -56 37
-54 71 1 17 -2 28 -7 25 -5 -4 -12 -2 -15 3 -3 5 1 12 10 15 27 10 5 24 -33
20 -56 -5 -63 -7 -58 -12 3 -3 -10 -16 -27 -28 -35 -26 -49 -24 -27 3 9 11 10
14 2 9 -9 -5 -13 -1 -13 12 0 10 -11 24 -25 30 -20 9 -25 18 -24 44 2 28 2 29
7 8 4 -23 5 -24 13 -5 7 19 8 19 8 -2 1 -28 49 -67 66 -53 6 5 16 6 20 2 5 -4
5 -1 1 6 -6 11 -11 11 -24 0 -15 -12 -16 -11 -4 4 8 9 20 14 27 11 10 -3 13 1
10 17 -3 18 -2 20 10 10 18 -15 20 -3 3 20 -7 9 -3 5 10 -8 19 -20 21 -27 10
-41 -10 -13 -10 -14 2 -4 11 10 16 9 26 -5 12 -16 13 -15 11 5 0 12 -6 21 -11
20 -6 -1 -10 3 -11 8 0 6 -4 16 -8 23 -5 6 -6 16 -3 21 8 13 -100 111 -179
163 -49 32 -65 48 -63 63 2 11 11 21 21 23 28 5 151 -81 239 -166 140 -136
231 -292 278 -479 6 -24 15 -43 20 -43 5 0 0 33 -11 73 -74 266 -227 465 -475
620 l-41 25 -26 -24 c-15 -14 -27 -20 -27 -14 0 6 -5 8 -10 5 -8 -5 -7 -11 1
-21 9 -11 8 -14 -2 -14 -9 -1 -8 -4 4 -11 9 -6 15 -14 12 -18 -2 -5 3 -8 11
-7 9 0 18 -7 19 -16 5 -26 -31 -23 -59 5 -17 17 -28 21 -40 15 -26 -15 -19
-38 11 -38 45 0 69 -31 65 -84 l-4 -46 -59 0 -59 0 0 50 c0 28 4 50 9 50 6 0
10 32 9 71 -1 80 4 77 -120 106 -60 15 -68 15 -82 1 -8 -9 -13 -18 -10 -21 3
-2 -2 -7 -11 -11 -9 -3 -14 -2 -10 3 3 5 -1 12 -7 14 -8 3 -6 6 5 6 21 1 23
31 2 31 -9 0 -15 9 -15 25 0 16 6 25 15 25 22 0 18 17 -5 23 -20 5 -20 0 -20
-219 0 -123 -4 -224 -9 -224 -4 0 -8 83 -7 185 l1 185 -22 0 -23 0 0 -185 c0
-102 -3 -185 -7 -185 -5 0 -7 83 -6 185 2 178 1 185 -17 185 -16 0 -20 7 -20
31 0 30 1 30 43 28 23 -2 44 1 47 7 3 5 -19 10 -48 12 l-53 3 1 -153z m-170
27 c7 -8 10 -24 7 -35 -6 -22 0 -25 23 -10 18 11 40 -5 40 -30 0 -18 -25 -34
-40 -25 -5 3 -12 0 -16 -6 -5 -8 -3 -9 6 -4 9 6 11 4 5 -4 -6 -10 -3 -11 13
-2 21 11 33 3 45 -31 5 -14 2 -17 -13 -15 -23 4 -170 133 -170 150 0 6 14 -2
30 -18 29 -28 43 -24 18 5 -11 12 -10 12 5 0 10 -7 16 -19 13 -26 -3 -7 2 -18
10 -24 12 -11 14 -5 14 33 0 39 -3 46 -22 50 -22 4 -22 4 -2 6 12 0 27 -6 34
-14z m414 4 c-4 -8 4 -9 27 -5 l34 6 -30 -13 c-30 -14 -30 -14 22 -13 29 2 50
-1 47 -5 -2 -4 2 -10 8 -13 7 -3 0 -3 -17 0 -27 4 -27 3 -7 -5 48 -22 11 -25
-60 -5 -10 3 -37 -14 -70 -42 -39 -35 -55 -57 -59 -83 -6 -32 -7 -31 -6 13 1
36 7 56 25 78 23 27 23 28 4 28 -11 0 -23 8 -27 18 -5 14 -4 15 6 5 15 -15 55
-17 63 -4 3 5 -2 15 -11 22 -14 13 -13 15 18 20 19 4 35 7 37 8 2 0 0 -4 -4
-10z m-346 -16 c2 -7 -3 -13 -12 -13 -9 0 -16 6 -16 13 0 9 -2 9 -9 -1 -7 -11
-9 -10 -15 3 -5 13 -1 16 21 13 14 -2 28 -9 31 -15z m-160 -31 c2 -8 -13 -12
-48 -12 -28 0 -49 4 -46 9 3 5 19 7 36 6 16 -1 30 2 30 7 0 13 23 5 28 -10z
m34 -49 c22 -20 24 -60 3 -60 -8 0 -15 6 -15 12 0 7 -6 18 -14 24 -12 10 -15
8 -18 -11 -4 -30 -32 -30 -36 0 -2 12 -8 22 -13 22 -14 0 -11 -11 12 -50 l21
-35 -36 34 c-37 36 -46 65 -23 74 29 12 101 6 119 -10z m-192 -38 l0 -45 -20
20 c-19 19 -19 22 -5 36 8 9 15 20 15 25 0 5 2 9 5 9 3 0 5 -20 5 -45z m975
13 c5 4 5 2 1 -5 -4 -7 2 -17 14 -23 11 -6 20 -8 20 -5 0 4 5 3 10 0 6 -4 8
-11 5 -16 -3 -5 -18 -1 -33 8 l-27 17 19 -22 c15 -17 17 -25 8 -34 -9 -9 -12
-7 -13 8 -1 12 -4 8 -9 -11 l-8 -30 -1 36 c0 20 -7 42 -15 48 -12 10 -13 20
-6 51 0 3 7 -3 14 -12 7 -10 17 -14 21 -10z m-37 -90 c-4 -54 -26 -63 -26 -11
0 42 4 53 19 53 6 0 9 -19 7 -42z m-636 -5 c3 -22 0 -41 -6 -45 -6 -4 -41 -8
-78 -8 l-68 0 0 45 0 45 74 0 74 0 4 -37z m-198 -15 c1 -43 24 -48 29 -6 2 20
4 10 6 -27 1 -33 5 -55 9 -49 4 6 23 11 43 12 43 2 99 11 111 18 5 3 7 0 6 -8
-2 -7 3 -12 10 -11 7 2 12 -9 12 -28 0 -23 -4 -30 -14 -26 -8 3 -17 1 -20 -6
-2 -7 -5 -3 -5 7 -1 20 -1 20 -16 0 -8 -10 -15 -14 -15 -7 0 7 -7 10 -15 7
-11 -5 -15 1 -15 20 0 14 -4 26 -10 26 -5 0 -10 -6 -10 -14 0 -7 -8 -20 -17
-27 -15 -12 -16 -12 -9 5 6 19 6 19 -11 3 -30 -26 -77 -11 -53 18 8 10 9 15 1
15 -6 0 -16 -9 -23 -20 -8 -12 -28 -23 -50 -27 -37 -5 -38 -6 -38 -51 0 -38
-2 -43 -15 -32 -13 10 -15 9 -15 -9 0 -12 6 -21 14 -21 21 0 28 -16 20 -43 -7
-21 -7 -21 -14 -2 -4 11 -2 24 4 28 7 6 6 7 -4 4 -8 -2 -14 -10 -13 -16 2 -6
-7 -11 -20 -11 -18 0 -19 2 -7 10 9 6 10 10 3 10 -6 0 -15 14 -18 31 -5 23 -9
28 -16 18 -7 -12 -9 -12 -9 1 0 10 -3 11 -11 3 -12 -12 -39 -6 -51 11 -5 7 -8
7 -8 1 0 -7 -24 -9 -62 -7 -58 3 -62 2 -47 -13 12 -12 37 -17 90 -19 l74 -2 2
-47 c1 -36 -2 -47 -14 -47 -11 0 -14 7 -10 23 3 12 2 31 -3 42 -7 18 -8 19
-15 2 -4 -9 -4 -28 -1 -42 4 -17 2 -25 -7 -25 -9 0 -14 13 -15 36 -1 20 -4 39
-6 41 -9 10 -26 -9 -26 -28 0 -15 -7 -19 -35 -19 -30 0 -35 3 -36 25 -1 14 -2
29 -3 34 0 5 -21 27 -46 50 -25 22 -40 40 -34 41 6 0 21 -11 34 -25 13 -14 28
-25 34 -25 5 0 -8 19 -29 42 -22 23 -33 37 -24 30 18 -13 30 -7 23 13 -3 7 -1
16 5 20 6 3 11 -2 11 -12 0 -11 6 -25 12 -32 7 -7 9 -11 3 -9 -5 2 -11 -2 -12
-7 0 -5 3 -9 8 -8 5 2 8 -3 6 -10 -1 -8 12 -13 38 -14 35 -1 36 -1 10 5 -26 6
-31 13 -35 47 -6 47 -2 75 12 75 6 0 8 -24 6 -55 -3 -51 -2 -55 20 -55 16 0
22 6 22 23 0 18 2 19 10 7 8 -12 10 -12 11 5 0 20 0 20 9 0 5 -11 9 -15 10
-10 1 6 5 -1 9 -15 7 -25 7 -25 13 -3 4 15 -1 32 -14 48 -25 32 -11 32 25 0
31 -27 33 -35 13 -35 -9 0 -14 -9 -13 -20 2 -25 17 -27 18 -2 0 14 2 14 9 -3
8 -19 9 -19 9 3 1 12 5 22 10 22 5 0 12 -10 14 -22 4 -20 4 -19 6 4 1 20 5 26
16 22 8 -4 15 -15 15 -25 0 -10 7 -19 15 -19 10 0 15 10 15 30 0 28 -3 30 -37
30 -27 0 -47 8 -70 29 -18 16 -33 32 -33 37 0 4 5 3 12 -4 15 -15 32 -16 23
-1 -4 6 2 5 14 -3 12 -7 21 -17 21 -22 0 -4 -8 -2 -17 5 -16 13 -17 12 -4 -3
11 -14 29 -18 91 -18 69 0 78 2 83 20 3 10 0 21 -7 24 -6 2 -3 5 8 5 14 1 16
4 7 14 -6 8 -8 16 -5 20 3 3 1 14 -5 24 -10 17 -10 17 -11 -2 -1 -20 -1 -20
-10 0 -7 18 -8 18 -15 -7 -4 -16 -11 -28 -17 -28 -5 0 -6 5 -3 10 3 6 -1 11
-9 11 -9 1 -24 2 -33 3 -10 1 -24 5 -31 10 -10 6 -13 3 -10 -12 2 -12 -1 -20
-7 -19 -5 1 -10 16 -10 32 l0 30 85 5 c47 3 87 4 89 2 3 -1 5 -17 5 -34z m826
-83 l-115 -115 35 1 c32 1 33 2 10 9 -21 7 -19 8 17 9 47 1 71 21 26 21 -20 0
-24 3 -14 9 16 11 121 3 137 -10 6 -5 9 -22 6 -39 -4 -29 -6 -30 -53 -30 -45
0 -49 -2 -49 -24 0 -29 -20 -46 -21 -19 0 16 -1 16 -8 -1 -7 -18 -8 -18 -14
-2 -4 10 -7 26 -7 37 0 14 -9 21 -32 26 -18 4 -36 6 -40 5 -12 -3 -10 16 4 41
10 20 10 21 -5 9 -9 -8 -18 -23 -20 -35 -3 -12 -4 -6 -3 13 2 35 18 46 42 28
6 -4 50 33 109 92 54 55 101 97 104 94 3 -2 -46 -56 -109 -119z m160 20 c0
-31 -26 -43 -47 -22 -21 21 -9 47 22 47 20 0 25 -5 25 -25z m-1025 -26 c-6 -9
-105 -8 -105 2 0 3 25 7 55 7 30 0 52 -4 50 -9z m609 -18 c18 -20 5 -24 -21
-8 -8 5 -13 3 -13 -4 0 -7 -3 -9 -6 -6 -6 5 13 37 21 37 1 0 10 -9 19 -19z
m-157 -61 c-1 -51 -21 -67 -23 -19 -2 43 -4 47 -21 53 -10 3 -6 4 10 2 15 -2
27 1 27 5 0 5 2 9 4 9 2 0 3 -23 3 -50z m657 -26 c10 -26 7 -34 -14 -34 -11 0
-20 4 -20 9 0 17 12 41 20 41 4 0 11 -7 14 -16z m-1470 -38 c11 4 13 -6 11
-48 -1 -29 -5 -52 -9 -50 -3 1 -15 2 -26 2 -17 0 -20 7 -20 52 0 35 -6 58 -17
72 -11 13 -6 10 15 -6 18 -15 39 -25 46 -22z m-62 -26 c3 -32 0 -40 -13 -40
-12 0 -16 10 -16 40 0 25 5 40 12 40 8 0 15 -17 17 -40z m1657 -26 c2 -2 -10
-4 -27 -4 -28 0 -32 -4 -33 -27 -1 -22 -2 -24 -7 -8 -5 20 -5 20 -13 0 -6 -15
-8 -11 -8 18 l-1 37 43 -6 c23 -4 44 -8 46 -10z m-1311 -44 c2 -32 -1 -40 -14
-40 -12 0 -15 6 -12 25 3 14 1 25 -3 25 -5 0 -9 7 -9 15 0 8 8 15 18 15 14 0
19 -9 20 -40z m-178 10 c0 -5 -16 -10 -36 -10 -21 0 -33 4 -29 10 3 6 19 10
36 10 16 0 29 -4 29 -10z m1514 -52 c10 -13 16 -17 16 -9 0 8 3 12 6 8 3 -3 1
-13 -4 -23 -9 -16 -10 -16 -16 3 -8 24 -35 39 -37 20 -1 -7 -1 -27 -1 -44 0
-30 -2 -33 -29 -33 -16 0 -29 5 -29 10 0 6 6 10 14 8 16 -3 17 -1 15 35 -1 16
-2 18 -6 5 -5 -22 -23 -24 -23 -3 0 8 -4 15 -9 15 -11 0 -21 -25 -21 -51 0
-15 -7 -19 -36 -19 -20 0 -33 4 -29 10 8 13 -5 60 -17 60 -5 0 -12 -9 -15 -20
-7 -25 -20 -26 -26 -2 -3 10 -5 6 -6 -11 -1 -18 4 -27 12 -25 6 2 13 0 15 -5
1 -4 0 -7 -3 -7 -3 0 -13 0 -24 0 -15 0 -18 8 -18 45 l0 44 121 4 c67 1 124 4
128 5 4 1 14 -8 22 -20z m-495 -170 c-1 -97 -6 -93 -12 10 -2 39 0 72 4 72 5
0 9 -37 8 -82z m-113 57 c8 -8 21 -12 29 -9 10 4 15 0 15 -11 0 -12 -6 -16
-20 -12 -11 3 -18 1 -14 -4 3 -5 12 -9 20 -9 9 0 14 -11 14 -30 0 -24 -4 -30
-22 -31 -22 -1 -22 -1 2 -8 24 -7 24 -7 4 -13 -11 -3 -21 -12 -21 -20 0 -10 7
-14 19 -10 13 3 18 -1 18 -17 0 -17 -6 -21 -32 -20 l-33 1 30 8 c30 8 30 8 3
9 -26 1 -26 2 -25 71 1 39 0 70 -3 70 -3 0 -6 11 -6 25 -2 29 2 31 22 10z
m251 -36 l-6 -21 250 3 c196 3 249 2 249 -8 0 -10 -61 -13 -280 -13 -192 0
-280 3 -280 11 0 6 9 8 20 4 11 -4 20 -2 20 4 0 6 -7 11 -16 11 -8 0 -12 5 -9
10 4 6 11 8 16 5 5 -4 9 -1 9 4 0 6 7 11 16 11 12 0 15 -6 11 -21z m-136 -281
c-2 -21 -7 -38 -12 -38 -5 0 -7 10 -5 23 3 12 6 58 7 102 l2 80 6 -65 c3 -36
4 -82 2 -102z m-71 97 c0 -8 -10 -16 -22 -16 -21 -2 -21 -2 2 -7 23 -4 24 -5
5 -13 -20 -8 -20 -8 0 -9 20 -1 20 -1 0 -10 -17 -7 -17 -9 -2 -9 12 -1 17 -9
17 -29 0 -25 -4 -29 -29 -30 l-29 -1 -1 70 0 69 29 0 c20 0 30 -5 30 -15z
m-127 -207 c-2 -5 -3 -20 -4 -35 0 -25 -1 -26 -9 -8 -9 20 -9 20 -10 0 -1 -20
-1 -20 -10 0 -6 15 -9 16 -9 4 -1 -13 -15 -16 -81 -16 -79 0 -80 1 -81 26 -2
24 -2 24 -7 -4 l-5 -30 -7 25 c-7 23 -8 23 -9 3 -1 -20 -6 -22 -71 -22 l-70 0
0 32 0 33 188 -1 c103 0 186 -3 185 -7z m67 -27 c0 -5 -7 -14 -15 -21 -8 -7
-15 -21 -15 -31 0 -12 -7 -19 -20 -19 -19 0 -19 0 1 40 19 35 49 55 49 31z
m60 2 c-1 -13 -48 -63 -60 -63 -18 0 -11 28 9 35 11 3 22 12 25 20 6 15 26 21
26 8z"/>
<path d="M1161 2036 c2 -2 22 -6 44 -9 21 -3 45 -13 52 -23 7 -10 13 -13 13
-7 0 21 -38 43 -75 43 -21 0 -36 -2 -34 -4z"/>
<path d="M1268 1873 c17 -2 47 -2 65 0 17 2 3 4 -33 4 -36 0 -50 -2 -32 -4z"/>
<path d="M1660 2231 c0 -5 21 -12 47 -16 26 -4 73 -15 105 -25 45 -14 58 -15
58 -5 0 8 -33 21 -91 34 -100 23 -119 25 -119 12z"/>
<path d="M2453 2199 c-1 -14 3 -19 13 -15 8 3 14 -1 14 -9 0 -16 30 -35 57
-35 23 0 53 34 53 60 0 26 -26 26 -33 0 -3 -12 -14 -20 -29 -21 l-23 -1 25 -9
25 -8 -25 2 c-14 1 -26 8 -26 15 -1 6 -2 19 -3 27 -2 24 -46 19 -48 -6z"/>
<path d="M290 2171 c11 -41 25 -64 52 -86 l23 -20 -21 25 c-29 34 -44 64 -44
89 0 12 -4 21 -9 21 -6 0 -6 -12 -1 -29z"/>
<path d="M620 2177 c0 -12 -11 -39 -25 -60 -30 -44 -26 -50 5 -7 25 35 43 90
29 90 -5 0 -9 -10 -9 -23z"/>
<path d="M2390 2181 c0 -12 5 -21 11 -21 5 0 7 5 4 10 -13 22 8 8 39 -25 18
-19 47 -38 64 -41 17 -4 33 -14 35 -23 3 -11 5 -10 6 5 1 15 10 23 31 28 32 6
39 20 16 29 -10 4 -13 1 -9 -9 4 -12 0 -14 -21 -8 -16 4 -33 1 -43 -7 -9 -8
-14 -9 -10 -3 3 6 -3 10 -16 10 -13 -1 -22 5 -22 14 -1 8 -7 14 -14 12 -7 -1
-15 7 -18 18 -3 11 -9 20 -13 20 -5 0 -15 3 -24 6 -12 4 -16 0 -16 -15z"/>
<path d="M1889 2157 c-4 -105 -5 -102 17 -103 12 -1 28 -5 35 -9 11 -7 12 -6
2 7 -7 8 -10 17 -7 21 3 3 -4 10 -15 17 -14 7 -21 21 -21 40 0 35 6 36 55 13
19 -9 38 -14 42 -10 9 10 5 13 -54 36 l-53 21 -1 -33z"/>
<path d="M2400 2143 c0 -19 57 -73 77 -73 16 1 16 2 -2 12 -11 6 -32 25 -47
42 -15 17 -28 26 -28 19z"/>
<path d="M917 2084 c-15 -8 -25 -19 -22 -24 8 -13 55 10 55 27 0 16 2 16 -33
-3z"/>
<path d="M249 2013 c-1 -2 -1 -15 -2 -30 -1 -29 26 -44 45 -25 6 6 1 8 -16 5
-21 -4 -24 -2 -19 16 6 23 19 28 26 9 4 -10 6 -10 6 0 2 20 -3 26 -21 27 -10
1 -18 0 -19 -2z"/>
<path d="M900 1974 c-19 -19 -31 -34 -26 -34 5 0 4 -6 -2 -13 -8 -9 -2 -20 20
-42 29 -29 30 -30 44 -10 9 11 14 38 12 63 -2 51 -23 51 -22 0 1 -24 -3 -35
-12 -34 -24 4 -27 16 -9 36 10 11 14 20 9 20 -5 1 1 9 14 20 12 10 19 21 15
23 -5 3 -24 -11 -43 -29z"/>
<path d="M1897 1983 c-4 -3 -1 -13 6 -21 10 -13 9 -15 -4 -10 -13 5 -16 0 -15
-26 1 -26 5 -32 19 -28 9 2 17 10 17 18 0 8 -6 11 -17 7 -17 -6 -17 -5 0 14
12 14 15 23 7 28 -5 3 -8 11 -5 16 7 10 1 12 -8 2z"/>
<path d="M824 1908 c-52 -57 -60 -75 -14 -33 24 22 39 33 33 25 -9 -12 -5 -21
17 -44 41 -41 58 -23 20 21 -25 28 -29 38 -19 49 24 29 -8 13 -37 -18z"/>
<path d="M181 1893 c-38 -19 -45 -49 -20 -90 25 -40 18 -57 -16 -41 -51 23
-82 -47 -33 -73 14 -7 23 -7 33 1 11 9 17 5 28 -17 8 -15 27 -39 41 -52 21
-20 26 -21 26 -8 0 9 -4 17 -8 17 -12 0 -42 56 -42 80 0 30 53 80 84 80 21 0
26 5 26 25 0 20 -5 25 -26 25 -15 0 -34 -10 -44 -22 -15 -19 -22 -21 -37 -12
-24 15 -28 47 -8 64 13 11 21 11 36 2 10 -7 35 -12 54 -12 33 0 35 -2 35 -33
0 -23 9 -40 30 -60 21 -21 30 -38 30 -61 0 -36 -33 -86 -56 -86 -8 0 -12 -5
-9 -10 10 -16 63 20 76 52 6 15 8 44 5 65 -4 21 -7 46 -8 55 -1 9 -5 15 -9 12
-10 -6 -26 17 -34 48 -7 29 -17 35 -82 53 -34 10 -48 9 -72 -2z m-33 -166 c4
-20 -25 -34 -40 -19 -15 15 -1 44 19 40 10 -2 19 -11 21 -21z"/>
<path d="M226 1748 c-34 -49 -2 -118 55 -118 57 0 94 88 52 121 -16 13 -17 12
-5 -3 22 -28 9 -45 -15 -21 -18 18 -23 19 -47 6 -14 -7 -26 -20 -26 -27 0 -22
49 -30 69 -11 22 19 36 7 17 -14 -8 -9 -15 -20 -15 -26 0 -5 -12 -11 -27 -13
-54 -7 -83 57 -48 106 8 12 13 22 10 22 -3 0 -12 -10 -20 -22z"/>
<path d="M2689 1720 c-16 -17 -15 -19 7 -31 20 -10 29 -10 57 4 18 9 25 16 16
16 -9 1 -19 8 -23 16 -7 20 -37 18 -57 -5z"/>
<path d="M1300 1700 c0 -24 5 -29 28 -33 l27 -4 -29 -2 c-28 -1 -28 -2 -22
-41 5 -31 3 -40 -8 -40 -8 0 -16 4 -18 8 -1 4 -15 -6 -31 -24 -27 -32 -27 -32
-8 -55 16 -19 22 -22 32 -11 7 6 20 12 29 11 9 0 6 -4 -7 -9 -13 -5 -23 -14
-23 -19 0 -6 13 -2 30 7 29 17 34 28 30 66 -1 13 3 17 14 13 14 -6 16 5 15 81
-1 48 -4 75 -6 60 -2 -16 -9 -28 -14 -28 -6 0 -9 10 -7 21 2 15 -3 23 -14 25
-14 2 -18 -5 -18 -26z"/>
<path d="M1680 1698 c0 -16 5 -28 10 -28 6 0 10 10 10 23 0 19 2 18 20 -10 16
-27 26 -33 52 -32 l33 1 -30 8 c-30 8 -30 8 8 9 32 1 37 4 37 25 0 23 -4 25
-70 28 l-70 3 0 -27z m128 -6 c2 -8 -7 -12 -27 -12 -20 0 -31 5 -31 14 0 18
52 16 58 -2z"/>
<path d="M1634 1698 c5 -34 36 -36 36 -4 0 19 -5 26 -20 26 -15 0 -19 -6 -16
-22z"/>
<path d="M1191 1665 c-2 -5 -4 -14 -5 -20 0 -5 -7 -20 -13 -31 -11 -18 -9 -24
13 -44 19 -19 27 -21 37 -11 9 10 9 15 -5 25 -9 7 -18 30 -21 52 -2 21 -5 35
-6 29z"/>
<path d="M1135 1620 c-22 -23 -25 -30 -12 -30 16 0 54 46 45 55 -2 3 -17 -9
-33 -25z"/>
<path d="M1860 1644 c0 -13 48 -59 55 -52 3 2 -9 17 -25 33 -17 16 -30 24 -30
19z"/>
<path d="M1766 1614 c16 -23 17 -23 30 -7 19 25 18 28 -16 30 -30 2 -30 2 -14
-23z"/>
<path d="M251 1475 c-2 -145 -1 -145 21 -145 23 0 23 0 19 137 -3 129 -8 152
-33 153 -3 0 -7 -65 -7 -145z"/>
<path d="M1112 1259 c2 -345 5 -364 49 -310 13 16 27 27 32 24 5 -3 3 4 -5 16
-7 12 -17 21 -23 21 -7 0 -9 88 -7 256 3 232 2 257 -14 268 -12 9 -14 15 -6
20 23 14 32 -6 32 -74 0 -64 1 -68 25 -74 26 -7 54 3 73 26 8 11 -3 29 -53 81
-39 41 -71 67 -84 67 -21 0 -21 -2 -19 -321z"/>
<path d="M109 1551 c-22 -18 -23 -22 -11 -53 6 -19 12 -44 12 -55 0 -11 9 -28
21 -38 17 -16 25 -17 49 -8 47 18 47 -11 0 -57 -22 -22 -40 -44 -40 -49 0 -5
-10 -13 -22 -17 -13 -3 -31 -13 -40 -21 -22 -19 -8 -50 28 -63 17 -7 24 -17
24 -36 0 -19 13 -39 40 -66 59 -55 71 -47 16 12 -44 47 -46 52 -46 109 0 51 4
63 29 90 16 17 38 31 50 31 20 0 21 5 21 121 0 118 -11 149 -24 68 -5 -34 -9
-39 -21 -29 -7 6 -15 21 -17 32 -2 11 -12 27 -24 35 -19 12 -24 11 -45 -6z
m49 -25 c4 -21 -14 -37 -35 -29 -14 5 -18 35 -6 47 12 12 38 1 41 -18z m29
-72 c3 -8 -1 -22 -9 -30 -12 -12 -17 -12 -33 -1 -23 17 -14 47 15 47 11 0 23
-7 27 -16z m-59 -221 c5 -17 -26 -29 -40 -15 -6 6 -7 15 -3 22 9 14 37 9 43
-7z"/>
<path d="M1597 1538 c-7 -4 7 -8 31 -8 23 0 42 4 42 8 0 10 -58 10 -73 0z"/>
<path d="M2726 1542 c-2 -4 -1 -14 5 -22 6 -10 9 -11 9 -2 0 6 5 12 11 12 5 0
7 -6 3 -12 -5 -10 -4 -10 6 -1 7 6 9 16 6 22 -8 13 -33 15 -40 3z"/>
<path d="M2440 1428 c0 -21 5 -38 10 -38 13 0 13 40 0 60 -7 11 -10 5 -10 -22z"/>
<path d="M1080 1380 c0 -40 4 -70 10 -70 6 0 10 30 10 70 0 40 -4 70 -10 70
-6 0 -10 -30 -10 -70z"/>
<path d="M1657 1443 c-4 -3 -7 -14 -7 -24 0 -14 7 -18 30 -16 32 2 38 15 18
35 -13 13 -31 16 -41 5z"/>
<path d="M1335 1429 c-8 -12 11 -29 35 -29 8 0 75 -60 150 -132 l135 -133
-145 150 c-80 82 -150 151 -157 153 -6 2 -14 -2 -18 -9z"/>
<path d="M1172 1210 c3 -164 5 -192 21 -207 10 -11 17 -13 17 -5 0 7 5 12 11
12 13 0 59 46 59 59 0 4 -18 6 -40 5 -40 -2 -51 14 -20 28 12 5 11 7 -5 9 -11
1 -2 5 20 9 l40 7 -37 2 c-21 0 -38 6 -38 11 0 6 12 8 28 5 15 -3 21 -2 15 1
-7 3 -13 12 -13 20 0 8 -8 14 -17 15 -12 1 -10 4 7 9 21 7 22 8 5 9 -14 1 -21
8 -21 21 0 11 4 20 8 20 4 0 8 -7 8 -15 0 -8 5 -15 11 -15 5 0 7 5 4 10 -3 6
4 10 17 11 17 0 12 4 -17 14 -34 11 -36 13 -15 15 l25 2 -25 8 -25 8 25 2 c25
1 25 1 3 10 -28 11 -31 24 -4 15 16 -5 18 -2 14 15 -3 11 -13 20 -22 21 -9 1
-5 4 9 9 24 8 24 8 3 9 -13 1 -22 4 -22 9 3 20 -3 32 -17 32 -13 0 -15 -23
-12 -190z"/>
<path d="M1579 1351 c-24 -21 -41 -42 -38 -45 3 -3 25 15 49 39 54 55 48 59
-11 6z"/>
<path d="M835 1360 l-30 -8 30 -2 c40 -3 58 0 70 11 11 11 -26 10 -70 -1z"/>
<path d="M2852 1317 c-27 -28 -29 -33 -13 -33 11 0 18 4 15 8 -2 4 8 18 23 32
15 14 23 26 17 26 -5 0 -24 -15 -42 -33z"/>
<path d="M740 1291 c0 -32 5 -51 14 -54 11 -4 12 2 6 29 -5 19 -6 43 -3 54 3
11 0 20 -6 20 -7 0 -11 -20 -11 -49z"/>
<path d="M393 1313 l-83 -4 0 -204 0 -203 30 -30 c17 -17 30 -40 30 -52 0 -30
-53 -80 -84 -80 -39 0 -79 41 -79 80 0 36 39 80 71 80 15 0 17 19 17 205 l0
205 -22 0 c-21 0 -23 -5 -23 -45 0 -31 6 -52 19 -67 24 -25 18 -55 -8 -36 -14
12 -15 11 -2 -5 13 -16 13 -20 0 -27 -19 -12 -53 11 -57 38 -2 13 5 26 17 34
29 18 31 108 3 108 -10 0 -28 -10 -40 -23 -17 -18 -22 -35 -22 -82 0 -55 2
-60 41 -96 41 -38 64 -43 52 -12 -4 10 -2 14 5 9 6 -3 10 -14 10 -24 0 -9 3
-42 7 -73 8 -61 9 -58 -58 -112 -54 -42 -39 -129 28 -168 23 -14 32 -25 28
-38 -4 -16 -9 -17 -33 -8 -58 22 -107 -46 -62 -86 22 -20 53 -22 70 -5 25 25
24 -4 -1 -30 -15 -16 -27 -34 -27 -41 0 -8 9 -2 21 13 11 14 27 26 35 26 8 0
14 10 14 24 0 13 7 29 15 36 11 9 13 16 5 24 -17 17 -11 55 10 66 23 12 60 -2
60 -23 1 -7 15 5 33 26 l33 38 -45 132 c-41 122 -44 142 -49 260 l-5 127 52 0
c39 0 51 4 51 15 0 8 5 15 10 15 6 0 10 -7 10 -16 0 -14 7 -15 40 -10 29 4 40
3 40 -6 0 -10 21 -12 85 -10 65 3 85 7 85 18 0 11 -24 14 -122 15 -68 1 -115
3 -105 6 9 2 17 9 17 14 0 5 -8 8 -17 7 -10 -1 -55 -4 -100 -5z m-197 -101
c-15 -15 -16 -14 -16 9 0 14 6 31 13 38 10 10 13 8 15 -10 2 -12 -3 -29 -12
-37z m217 -434 c4 -12 1 -28 -5 -35 -12 -15 -18 -16 -37 -4 -11 7 -10 13 4 35
21 32 31 33 38 4z m-170 -130 c7 -22 -4 -38 -28 -38 -13 0 -25 6 -28 13 -7 21
4 37 28 37 13 0 25 -6 28 -12z"/>
<path d="M2720 1107 c0 -202 0 -204 23 -214 l22 -10 -3 201 c-1 110 -5 207 -7
214 -2 6 -11 12 -20 12 -13 0 -15 -27 -15 -203z"/>
<path d="M1428 1200 c-34 -33 -57 -60 -52 -60 5 0 36 27 69 60 33 33 56 60 52
60 -5 0 -36 -27 -69 -60z"/>
<path d="M2833 1128 c-15 -25 3 -67 29 -68 4 0 12 9 18 20 20 37 -25 82 -47
48z m34 -23 c-3 -27 -23 -36 -21 -10 3 31 4 35 14 35 6 0 9 -11 7 -25z"/>
<path d="M1660 1116 c0 -10 9 -16 21 -16 24 0 21 23 -4 28 -10 2 -17 -3 -17
-12z"/>
<path d="M1942 1043 l2 -58 3 52 c4 50 5 52 36 56 31 4 31 4 -5 5 l-38 2 2
-57z"/>
<path d="M158 1024 c-33 -17 -35 -37 -7 -65 18 -18 23 -19 42 -6 28 19 33 49
10 69 -16 15 -21 15 -45 2z m40 -38 c-2 -13 -10 -21 -23 -21 -23 0 -33 34 -14
45 20 13 40 -1 37 -24z"/>
<path d="M2832 948 c-39 -39 17 -100 58 -63 34 31 20 75 -25 75 -12 0 -26 -5
-33 -12z m54 -43 c-3 -9 -14 -15 -23 -13 -22 4 -30 38 -11 49 18 11 43 -15 34
-36z"/>
<path d="M1175 926 c-19 -28 -19 -29 1 -43 17 -13 19 -12 22 6 2 12 2 31 0 44
-3 21 -4 21 -23 -7z"/>
<path d="M1850 910 c0 -44 8 -49 33 -22 22 24 22 27 -8 46 l-25 16 0 -40z"/>
<path d="M1897 893 c-14 -13 -6 -23 19 -23 22 0 25 2 14 15 -14 16 -23 19 -33
8z"/>
<path d="M246 869 c-36 -28 -33 -73 6 -102 27 -20 29 -20 63 -4 30 14 35 22
35 49 0 39 -7 51 -37 67 -30 15 -36 14 -67 -10z m72 -5 c48 -33 8 -111 -49
-97 -45 12 -49 86 -6 103 30 12 30 12 55 -6z"/>
<path d="M264 835 c-4 -9 -2 -21 4 -27 15 -15 44 -1 40 19 -4 23 -36 29 -44 8z"/>
<path d="M2676 869 c-45 -35 -26 -105 30 -110 42 -4 56 2 68 33 17 39 5 71
-31 87 -32 15 -36 14 -67 -10z m72 -5 c24 -17 30 -62 10 -82 -20 -20 -76 -15
-88 9 -16 28 -5 63 22 77 31 14 30 14 56 -4z"/>
<path d="M2694 835 c-4 -9 -2 -21 4 -27 15 -15 44 -1 40 19 -4 23 -36 29 -44
8z"/>
<path d="M1630 850 c0 -27 3 -30 32 -30 l32 0 -29 30 c-16 17 -30 30 -32 30
-2 0 -3 -13 -3 -30z"/>
<path d="M1077 852 c-26 -28 -21 -32 38 -32 48 0 55 2 55 20 0 14 -7 20 -24
20 -13 0 -31 2 -38 5 -8 3 -22 -3 -31 -13z"/>
<path d="M1180 840 c0 -18 7 -20 65 -20 58 0 65 2 65 20 0 18 -7 20 -65 20
-58 0 -65 -2 -65 -20z m108 -5 c3 -3 -13 -5 -36 -5 -22 0 -43 4 -46 9 -6 9 73
5 82 -4z"/>
<path d="M1327 853 c-13 -12 -7 -33 8 -33 8 0 15 9 15 20 0 20 -11 26 -23 13z"/>
<path d="M1590 840 c0 -11 7 -20 15 -20 8 0 15 9 15 20 0 11 -7 20 -15 20 -8
0 -15 -9 -15 -20z"/>
<path d="M1695 840 c15 -17 31 -20 97 -20 62 0 80 3 85 15 8 23 -7 33 -18 12
-7 -12 -21 -17 -52 -15 l-42 1 38 4 c68 7 38 23 -45 23 -80 0 -81 0 -63 -20z"/>
<path d="M313 684 c-3 -9 2 -23 12 -32 11 -11 15 -12 10 -3 -6 11 -4 13 9 8
20 -8 34 19 18 35 -8 8 -9 5 -6 -8 4 -15 0 -20 -15 -20 -12 0 -21 6 -21 14 0
7 5 10 10 7 6 -3 10 -1 10 4 0 17 -20 13 -27 -5z"/>
<path d="M380 655 c-7 -8 -24 -21 -39 -28 -23 -11 -27 -19 -31 -75 -3 -40 -10
-66 -20 -72 -10 -7 -11 -10 -2 -10 7 0 21 14 32 32 17 28 20 29 26 14 5 -12 2
-22 -9 -27 -24 -14 -55 -69 -66 -119 -7 -33 -6 -52 4 -77 18 -43 55 -96 63
-89 3 3 -2 14 -11 24 -9 10 -23 36 -31 58 -12 36 -12 45 5 88 27 72 76 116
129 116 12 0 20 7 20 16 0 9 10 29 21 46 l22 30 -44 44 c-50 49 -52 50 -69 29z
m54 -57 c11 -15 12 -26 5 -40 -11 -21 -29 -24 -29 -4 0 26 -28 40 -56 27 -34
-15 -28 9 7 26 35 18 56 16 73 -9z m-44 -48 c0 -21 -24 -28 -35 -10 -8 14 3
30 21 30 8 0 14 -9 14 -20z"/>
<path d="M415 467 c-95 -30 -136 -156 -69 -214 16 -14 28 -29 26 -35 -1 -5 2
-7 7 -4 14 9 42 -5 34 -18 -3 -6 -3 -8 2 -4 4 4 14 3 22 -3 10 -9 13 -6 13 15
0 17 -5 26 -16 26 -23 0 -112 96 -100 107 3 4 6 2 6 -2 0 -5 10 11 23 35 31
62 79 81 134 54 23 -12 44 -32 53 -51 14 -31 45 -52 57 -39 12 11 -39 92 -72
115 -40 27 -76 32 -120 18z"/>
<path d="M2470 451 c-33 -17 -79 -81 -80 -108 0 -18 35 -16 50 2 14 17 40 20
40 5 0 -5 -7 -10 -15 -10 -9 0 -15 -9 -15 -22 0 -17 -3 -19 -12 -10 -7 7 -20
12 -31 12 -14 0 -17 -5 -11 -22 23 -76 61 -109 126 -107 l43 2 -40 6 c-45 8
-91 35 -105 62 -13 23 -12 29 0 29 6 0 10 -7 10 -15 0 -10 7 -15 18 -13 9 2
16 -3 15 -9 -2 -7 2 -13 7 -13 6 0 10 4 10 9 0 13 -26 32 -33 24 -4 -3 -7 -1
-7 6 0 6 6 14 14 17 9 3 12 13 9 22 -4 13 -1 12 10 -3 9 -11 11 -22 6 -24 -17
-5 24 -30 51 -30 14 0 38 11 53 24 27 24 27 25 11 57 -21 42 -16 39 -58 44
-20 2 -36 0 -36 -6 0 -5 -7 -10 -15 -10 -18 0 -19 12 -3 28 17 17 69 15 96 -4
19 -13 22 -13 22 0 0 8 -8 20 -17 25 -10 6 -13 11 -7 11 6 0 19 -9 29 -20 14
-15 15 -23 6 -34 -7 -8 -8 -17 -3 -20 13 -8 22 4 22 26 0 11 4 16 10 13 5 -3
7 -22 4 -42 -4 -24 -1 -39 8 -44 10 -7 8 -17 -10 -51 -13 -24 -16 -36 -8 -28
8 8 22 32 31 53 14 35 14 37 -2 38 -11 0 -13 3 -5 6 18 7 15 44 -8 78 -11 17
-20 27 -20 22 0 -4 -18 4 -40 18 -47 30 -74 31 -120 6z m86 -127 c1 -27 -2
-31 -20 -28 -12 3 -15 2 -8 -2 13 -6 7 -24 -9 -24 -6 0 -8 4 -4 9 3 5 -1 16
-9 24 -13 12 -13 17 1 36 21 31 48 23 49 -15z"/>
<path d="M1329 434 c7 -27 31 -46 31 -25 0 6 -5 11 -10 11 -6 0 -10 7 -8 16 2
10 -2 19 -9 21 -8 3 -9 -4 -4 -23z"/>
<path d="M1045 420 c3 -6 27 -10 52 -10 57 0 53 5 -10 13 -31 4 -46 3 -42 -3z"/>
<path d="M410 407 c-27 -21 -57 -81 -47 -94 28 -36 67 -73 76 -73 19 0 12 15
-11 25 -12 6 -29 22 -37 36 -12 22 -12 31 -1 58 7 18 25 38 39 46 14 8 19 14
11 14 -8 0 -22 -5 -30 -12z"/>
<path d="M491 397 c54 -36 52 -104 -4 -133 -17 -10 -27 -19 -20 -21 7 -2 21 1
32 7 12 6 21 7 21 1 0 -5 -6 -12 -12 -14 -8 -3 -8 -6 -2 -6 6 -1 19 8 29 19
11 12 13 20 6 20 -8 0 -9 5 -1 19 18 35 11 71 -19 102 -16 16 -37 29 -47 29
-11 0 -6 -8 17 -23z"/>
<path d="M681 400 c-2 -8 -3 -18 -3 -21 2 -18 -17 -167 -23 -184 -6 -14 -2
-12 14 7 20 24 21 36 18 120 -1 51 -4 86 -6 78z"/>
<path d="M898 313 c5 -124 0 -121 65 -55 l59 59 -59 34 c-32 19 -60 35 -63 37
-3 1 -4 -33 -2 -75z m56 2 c19 -14 19 -15 1 -35 -28 -31 -45 -25 -45 15 0 38
13 44 44 20z"/>
<path d="M558 295 c-7 -37 6 -39 31 -5 l22 30 -25 0 c-17 0 -25 -7 -28 -25z"/>
<path d="M467 217 c-3 -8 -2 -19 3 -26 5 -10 9 -9 13 3 4 9 14 16 24 16 15 0
16 2 3 10 -21 14 -37 12 -43 -3z"/>
<path d="M677 193 c-25 -24 13 -94 51 -92 14 0 14 2 -3 9 -32 12 -48 37 -43
65 6 27 5 29 -5 18z"/>
<path d="M1461 105 c0 -91 1 -95 22 -95 21 0 22 4 22 95 0 91 -1 95 -22 95
-21 0 -22 -4 -22 -95z"/>
<path d="M1520 105 c0 -94 0 -95 25 -95 24 0 24 1 24 95 0 94 0 95 -24 95 -25
0 -25 -1 -25 -95z"/>
<path d="M702 163 c3 -30 32 -43 51 -24 7 7 3 8 -12 4 -17 -4 -21 -1 -21 21 0
14 -5 26 -11 26 -6 0 -9 -12 -7 -27z"/>
<path d="M1034 119 c-19 -22 -19 -22 4 -10 12 6 57 14 99 17 105 7 105 14 1
14 -74 0 -87 -3 -104 -21z"/>
</g>
</svg>
